<svg width="18" height="18" viewBox="0 0 18 18" fill="none" xmlns="http://www.w3.org/2000/svg">
<path d="M17.9775 9.98451L16.0125 1.77496C16.0125 1.77419 16.0125 1.77419 16.0125 1.77338C15.7598 0.728597 14.8628 0 13.8307 0H4.17002C3.13801 0 2.24104 0.728597 1.98826 1.77496L0.0232383 9.98451C0.00748828 10.0464 0 10.1098 0 10.1739V15.6522C0 16.9466 1.00951 18 2.25 18H15.75C16.9905 18 18 16.9466 18 15.6522V10.1739C18 10.1098 17.9925 10.0464 17.9775 9.98451ZM3.4425 2.15531C3.52649 1.80783 3.82574 1.56523 4.16999 1.56523H13.83C14.1735 1.56523 14.472 1.80783 14.5567 2.15454L15.6315 6.64436H12C11.586 6.64436 11.25 6.99495 11.25 7.42695C11.25 8.72138 10.2405 9.77478 9 9.77478C7.75951 9.77478 6.75 8.72138 6.75 7.42695C6.75 6.99495 6.41401 6.64436 6.00001 6.64436H2.36774L3.4425 2.15531ZM16.5 15.6522C16.5 16.0834 16.1632 16.4348 15.75 16.4348H2.25C1.83674 16.4348 1.50001 16.0834 1.50001 15.6522V10.2702L1.9935 8.20955H5.32575C5.67376 9.99313 7.18949 11.34 9 11.34C10.8105 11.34 12.3262 9.99309 12.6742 8.20955H16.0065L16.5 10.2702V15.6522Z" fill="currentColor"/>
</svg>
