<svg width="10" height="14" viewBox="0 0 10 14" fill="none" xmlns="http://www.w3.org/2000/svg">
<path d="M5.57085 13.767L9.76516 9.60981C10.0793 9.29842 10.0781 8.79476 9.76242 8.48481C9.44674 8.17489 8.93613 8.17608 8.62194 8.48747L5.80645 11.2782L5.80645 0.795475C5.80645 0.356134 5.4454 -1.99088e-07 5 -2.18557e-07C4.5546 -2.38026e-07 4.19355 0.356134 4.19355 0.795475L4.19355 11.2781L1.37806 8.48751C1.06387 8.17612 0.553263 8.17493 0.237578 8.48485C-0.0781883 8.7948 -0.0792765 9.2985 0.234836 9.60985L4.42839 13.7664C4.74363 14.0779 5.25665 14.0776 5.57085 13.767Z" fill="currentColor"/>
</svg>
