<svg width="14" height="17" viewBox="0 0 14 17" fill="none" xmlns="http://www.w3.org/2000/svg">
<path d="M5.39844 1H8.73176" stroke="currentColor" stroke-width="1.5" stroke-linecap="round" stroke-linejoin="round"/>
<path d="M12.0673 8.46478C12.0998 10.7943 12.5985 12.1675 13.0416 12.9321C13.0928 13.0163 13.1207 13.1126 13.1225 13.2111C13.1243 13.3097 13.0999 13.4069 13.0518 13.4929C13.0037 13.5789 12.9337 13.6506 12.8488 13.7006C12.7639 13.7507 12.6672 13.7773 12.5687 13.7777H1.56125C1.13913 13.7777 0.859582 13.3222 1.07376 12.9584C1.53599 12.1734 2.06566 10.7273 2.06566 8.22216C2.06574 7.51646 2.21516 6.81877 2.50411 6.17494C2.79305 5.5311 3.21498 4.9557 3.74215 4.48656C4.26933 4.01741 4.88981 3.66514 5.56284 3.45289C6.23586 3.24064 6.94618 3.17322 7.64712 3.25506C10.22 3.5453 12.0312 5.87586 12.0673 8.46478Z" stroke="currentColor" stroke-width="1.5" stroke-linecap="round" stroke-linejoin="round"/>
<path d="M9.28769 13.7777C9.28769 14.3671 9.05357 14.9323 8.63682 15.3491C8.22007 15.7658 7.65485 15.9999 7.06548 15.9999C6.47611 15.9999 5.91088 15.7658 5.49413 15.3491C5.07739 14.9323 4.84326 14.3671 4.84326 13.7777" stroke="currentColor" stroke-width="1.5" stroke-linecap="round" stroke-linejoin="round"/>
</svg>
