<svg width="17" height="14" viewBox="0 0 17 14" fill="none" xmlns="http://www.w3.org/2000/svg">
<path fill-rule="evenodd" clip-rule="evenodd" d="M0 1C0 0.447715 0.447715 0 1 0H16C16.5523 0 17 0.447715 17 1C17 1.55228 16.5523 2 16 2H1C0.447715 2 0 1.55228 0 1ZM0 7C0 6.44772 0.447715 6 1 6H16C16.5523 6 17 6.44772 17 7C17 7.55228 16.5523 8 16 8H1C0.447715 8 0 7.55228 0 7ZM1 12C0.447715 12 0 12.4477 0 13C0 13.5523 0.447715 14 1 14H16C16.5523 14 17 13.5523 17 13C17 12.4477 16.5523 12 16 12H1Z" fill="currentColor"/>
</svg>
