<svg width="40" height="40" viewBox="0 0 40 40" fill="none" xmlns="http://www.w3.org/2000/svg">
<path d="M31.9132 16.1735H8.08679C7.61218 16.1735 7.22742 15.7887 7.22742 15.3141V8.96039C7.22742 8.48578 7.61218 8.10101 8.08679 8.10101H31.9133C32.3879 8.10101 32.7727 8.48578 32.7727 8.96039V15.3141C32.7726 15.7887 32.3878 16.1735 31.9132 16.1735ZM8.94617 14.4548H31.0539V9.81976H8.94617V14.4548Z" fill="#A6AEBF"/>
<path d="M31.991 0H8.00897C4.95046 0 2.4621 2.48836 2.4621 5.54688V34.4531C2.4621 37.5116 4.95046 40 8.00897 40H31.9911C35.0496 40 37.538 37.5116 37.538 34.4531V5.54688C37.5379 2.48836 35.0496 0 31.991 0ZM35.8191 34.4531C35.8191 36.564 34.1019 38.2812 31.991 38.2812H8.00897C5.89811 38.2812 4.18085 36.564 4.18085 34.4531V5.54688C4.18085 3.43602 5.89811 1.71875 8.00897 1.71875H31.9911C34.1019 1.71875 35.8192 3.43602 35.8192 5.54688V34.4531H35.8191Z" fill="currentColor"/>
<path d="M12.852 19.2201H8.08679C7.61218 19.2201 7.22742 19.6049 7.22742 20.0795V24.8448C7.22742 25.3194 7.61218 25.7042 8.08679 25.7042H12.852C13.3266 25.7042 13.7114 25.3194 13.7114 24.8448V20.0795C13.7114 19.6048 13.3266 19.2201 12.852 19.2201ZM11.9927 23.9853H8.94617V20.9388H11.9927V23.9853Z" fill="currentColor"/>
<path d="M12.852 28.7506H8.08679C7.61218 28.7506 7.22742 29.1354 7.22742 29.61V34.3753C7.22742 34.8499 7.61218 35.2347 8.08679 35.2347H12.852C13.3266 35.2347 13.7114 34.8499 13.7114 34.3753V29.61C13.7114 29.1354 13.3266 28.7506 12.852 28.7506ZM11.9927 33.5159H8.94617V30.4694H11.9927V33.5159Z" fill="currentColor"/>
<path d="M31.9132 19.2201H27.1479C26.6733 19.2201 26.2886 19.6049 26.2886 20.0795V34.3753C26.2886 34.8499 26.6733 35.2347 27.1479 35.2347H31.9132C32.3878 35.2347 32.7726 34.8499 32.7726 34.3753V20.0795C32.7726 19.6048 32.3878 19.2201 31.9132 19.2201ZM31.0538 33.516H28.0073V20.9388H31.0538V33.516Z" fill="currentColor"/>
<path d="M22.3827 19.2201H17.6173C17.1427 19.2201 16.758 19.6049 16.758 20.0795V24.8448C16.758 25.3194 17.1427 25.7042 17.6173 25.7042H22.3827C22.8573 25.7042 23.242 25.3194 23.242 24.8448V20.0795C23.242 19.6048 22.8573 19.2201 22.3827 19.2201ZM21.5233 23.9853H18.4767V20.9388H21.5233V23.9853Z" fill="currentColor"/>
<path d="M22.3827 28.7506H17.6173C17.1427 28.7506 16.758 29.1354 16.758 29.61V34.3753C16.758 34.8499 17.1427 35.2347 17.6173 35.2347H22.3827C22.8573 35.2347 23.242 34.8499 23.242 34.3753V29.61C23.242 29.1354 22.8573 28.7506 22.3827 28.7506ZM21.5233 33.5159H18.4767V30.4694H21.5233V33.5159Z" fill="currentColor"/>
<path d="M22.3826 4.05054H17.6173C16.4787 4.09522 16.4766 5.72366 17.6173 5.76929H22.3826C22.8573 5.76929 23.242 5.38452 23.242 4.90991C23.242 4.4353 22.8573 4.05054 22.3826 4.05054Z" fill="currentColor"/>
</svg>
