<svg id="_747993" data-name="747993" xmlns="http://www.w3.org/2000/svg" width="20" height="20" viewBox="0 0 20 20">
  <g id="Group_389" data-name="Group 389">
    <g id="Group_388" data-name="Group 388">
      <path id="Path_950" data-name="Path 950" d="M19.219,13.75A.781.781,0,0,0,20,12.969V4.688a3.129,3.129,0,0,0-3.125-3.125H15.859V.781a.781.781,0,1,0-1.562,0v.781H10.742V.781a.781.781,0,0,0-1.562,0v.781H5.664V.781A.781.781,0,0,0,4.1.781v.781H3.125A3.129,3.129,0,0,0,0,4.688V16.875A3.129,3.129,0,0,0,3.125,20h13.75A3.129,3.129,0,0,0,20,16.875a.781.781,0,0,0-1.562,0,1.564,1.564,0,0,1-1.562,1.563H3.125a1.564,1.564,0,0,1-1.562-1.562V4.688A1.564,1.564,0,0,1,3.125,3.125H4.1v.781a.781.781,0,0,0,1.563,0V3.125H9.18v.781a.781.781,0,0,0,1.563,0V3.125H14.3v.781a.781.781,0,1,0,1.563,0V3.125h1.016a1.564,1.564,0,0,1,1.563,1.563v8.281A.781.781,0,0,0,19.219,13.75Z" fill="currentColor"/>
    </g>
  </g>
  <g id="Group_391" data-name="Group 391" transform="translate(4.102 7.422)">
    <g id="Group_390" data-name="Group 390">
      <circle id="Ellipse_28" data-name="Ellipse 28" cx="0.781" cy="0.781" r="0.781" fill="currentColor"/>
    </g>
  </g>
  <g id="Group_393" data-name="Group 393" transform="translate(10.898 7.422)">
    <g id="Group_392" data-name="Group 392">
      <circle id="Ellipse_29" data-name="Ellipse 29" cx="0.781" cy="0.781" r="0.781" fill="currentColor"/>
    </g>
  </g>
  <g id="Group_395" data-name="Group 395" transform="translate(14.297 7.422)">
    <g id="Group_394" data-name="Group 394">
      <circle id="Ellipse_30" data-name="Ellipse 30" cx="0.781" cy="0.781" r="0.781" fill="currentColor"/>
    </g>
  </g>
  <g id="Group_397" data-name="Group 397" transform="translate(4.102 10.82)">
    <g id="Group_396" data-name="Group 396">
      <circle id="Ellipse_31" data-name="Ellipse 31" cx="0.781" cy="0.781" r="0.781" fill="currentColor"/>
    </g>
  </g>
  <g id="Group_399" data-name="Group 399" transform="translate(4.102 14.219)">
    <g id="Group_398" data-name="Group 398">
      <circle id="Ellipse_32" data-name="Ellipse 32" cx="0.781" cy="0.781" r="0.781" fill="currentColor"/>
    </g>
  </g>
  <g id="Group_401" data-name="Group 401" transform="translate(7.5 7.422)">
    <g id="Group_400" data-name="Group 400">
      <circle id="Ellipse_33" data-name="Ellipse 33" cx="0.781" cy="0.781" r="0.781" fill="currentColor"/>
    </g>
  </g>
  <g id="Group_403" data-name="Group 403" transform="translate(7.5 10.82)">
    <g id="Group_402" data-name="Group 402">
      <circle id="Ellipse_34" data-name="Ellipse 34" cx="0.781" cy="0.781" r="0.781" fill="currentColor"/>
    </g>
  </g>
  <g id="Group_405" data-name="Group 405" transform="translate(7.5 14.219)">
    <g id="Group_404" data-name="Group 404">
      <circle id="Ellipse_35" data-name="Ellipse 35" cx="0.781" cy="0.781" r="0.781" fill="currentColor"/>
    </g>
  </g>
  <g id="Group_407" data-name="Group 407" transform="translate(10.898 10.82)">
    <g id="Group_406" data-name="Group 406">
      <circle id="Ellipse_36" data-name="Ellipse 36" cx="0.781" cy="0.781" r="0.781" fill="currentColor"/>
    </g>
  </g>
  <g id="Group_409" data-name="Group 409" transform="translate(14.297 10.82)">
    <g id="Group_408" data-name="Group 408">
      <circle id="Ellipse_37" data-name="Ellipse 37" cx="0.781" cy="0.781" r="0.781" fill="currentColor"/>
    </g>
  </g>
  <g id="Group_411" data-name="Group 411" transform="translate(10.898 14.219)">
    <g id="Group_410" data-name="Group 410">
      <circle id="Ellipse_38" data-name="Ellipse 38" cx="0.781" cy="0.781" r="0.781" fill="currentColor"/>
    </g>
  </g>
</svg>
