<svg width="13" height="20" viewBox="0 0 13 20" fill="none" xmlns="http://www.w3.org/2000/svg">
<path d="M6.5 0C2.91585 0 0 2.99499 0 6.67643C0 10.3577 2.91585 13.3529 6.5 13.3529C10.084 13.3529 13 10.3577 13 6.67643C13 2.99499 10.084 0 6.5 0ZM6.5 12.0395C3.62104 12.0395 1.27869 9.63353 1.27869 6.67643C1.27869 3.71933 3.62104 1.3134 6.5 1.3134C9.37919 1.3134 11.7213 3.71933 11.7213 6.67643C11.7213 9.63353 9.37919 12.0395 6.5 12.0395Z" fill="currentColor"/>
<path d="M11.0385 19.0823L10.7188 11.2895L9.44141 11.3447L9.72017 18.1371L7.07905 15.7997C6.74895 15.4829 6.2509 15.4825 5.92057 15.7997L3.27965 18.1369L3.55841 11.3447L2.28078 11.2895L1.9611 19.0823C1.96087 19.0915 1.96068 19.1007 1.96068 19.1099C1.96068 19.4577 2.15738 19.7754 2.46192 19.919C2.76795 20.0639 3.11958 20.012 3.37959 19.7824L6.5 17.0209L9.62129 19.7834C9.78326 19.9259 9.98124 19.9997 10.1815 19.9997C10.3022 19.9997 10.4234 19.9732 10.5381 19.9189C10.8424 19.7754 11.0391 19.4577 11.0391 19.1099C11.0391 19.1007 11.0389 19.0915 11.0385 19.0823Z" fill="currentColor"/>
<path d="M9.3391 4.67964C9.08932 4.42308 8.68483 4.42308 8.43509 4.67964L5.65052 7.53979L4.35498 6.19292C4.10672 5.93483 3.70201 5.93221 3.45074 6.18721C3.19948 6.44221 3.19693 6.85791 3.44519 7.116L5.19271 8.93287C5.31247 9.05744 5.47531 9.12768 5.64558 9.12814C5.64622 9.12814 5.64687 9.12814 5.64748 9.12814C5.8169 9.12814 5.97971 9.05896 6.09969 8.93553L9.33903 5.60827C9.58888 5.35186 9.58888 4.93597 9.3391 4.67964Z" fill="currentColor"/>
</svg>
