<svg width="24" height="24" viewBox="0 0 24 24" fill="none" xmlns="http://www.w3.org/2000/svg">
<g opacity="0.5">
<path d="M23.2189 13.4003L22.7677 12.7823C22.3949 12.2722 22.39 11.5806 22.753 11.0608L23.1944 10.4379C23.7045 9.71196 23.469 8.7065 22.6843 8.28469L22.0123 7.92174C21.4532 7.62256 21.1491 6.99966 21.2521 6.37676L21.3796 5.62144C21.5268 4.7484 20.8745 3.93913 19.9867 3.9048L19.2216 3.87046C18.5889 3.84594 18.0444 3.41433 17.8679 2.80614L17.657 2.07044C17.4117 1.21702 16.4749 0.775598 15.6559 1.12874L14.9545 1.43283C14.3708 1.68297 13.6989 1.53583 13.2722 1.06007L12.7621 0.491125C12.1686 -0.171009 11.1337 -0.1612 10.5501 0.505839L10.0498 1.08459C9.63288 1.56035 8.96094 1.7222 8.37728 1.48187L7.67101 1.1925C6.85192 0.854073 5.92003 1.31021 5.6846 2.16853L5.48351 2.90424C5.32166 3.52223 4.78704 3.95875 4.15434 3.99308L3.3892 4.03722C2.50145 4.08627 1.86384 4.90535 2.0257 5.77349L2.16303 6.5239C2.27584 7.1468 1.98156 7.7746 1.42732 8.07869L0.760286 8.45145C-0.0146569 8.88307 -0.240273 9.89343 0.28453 10.6095L0.735762 11.2275C1.10852 11.7376 1.11342 12.4292 0.750476 12.9491L0.309053 13.572C-0.201035 14.2979 0.0343902 15.3033 0.819142 15.7251L1.49109 16.0881C2.05022 16.3873 2.35431 17.0102 2.25131 17.633L2.11889 18.3835C1.97175 19.2565 2.62407 20.0658 3.51182 20.1001L4.27695 20.1344C4.90966 20.159 5.45408 20.5906 5.63065 21.1988L5.84155 21.9345C6.08679 22.7879 7.02359 23.2293 7.84267 22.8762L8.54404 22.5721C9.1277 22.3219 9.79964 22.4691 10.2264 22.9399L10.7364 23.5089C11.3299 24.171 12.3648 24.1612 12.9485 23.4942L13.4487 22.9154C13.8656 22.4397 14.5376 22.2778 15.1212 22.5181L15.8275 22.8075C16.6466 23.1459 17.5785 22.6898 17.8139 21.8315L18.015 21.0958C18.1818 20.4876 18.7213 20.0511 19.354 20.0118L20.1191 19.9677C21.0069 19.9186 21.6445 19.0996 21.4826 18.2314L21.3453 17.481C21.2325 16.8581 21.5268 16.2303 22.081 15.9262L22.7481 15.5535C23.5181 15.1317 23.7388 14.1164 23.2189 13.4003ZM11.7517 19.7519C7.47482 19.7519 4.0072 16.2843 4.0072 12.0074C4.0072 7.73046 7.47482 4.26284 11.7517 4.26284C16.0286 4.26284 19.4962 7.73046 19.4962 12.0074C19.4962 16.2843 16.0286 19.7519 11.7517 19.7519Z" fill="currentColor"/>
<path d="M10.7597 12.213L10.0731 11.5215C9.66599 11.1095 8.99895 11.1095 8.58696 11.5166C8.17496 11.9237 8.17496 12.5907 8.58205 13.0027L9.26871 13.6943L10.0338 14.4594C10.4311 14.8616 11.0785 14.8616 11.4807 14.4643L12.2459 13.7041L14.914 11.0506C15.326 10.6435 15.326 9.97649 14.9189 9.56449C14.5118 9.1525 13.8448 9.1525 13.4328 9.55959L10.7597 12.213Z" fill="currentColor"/>
</g>
</svg>
