<svg width="22" height="22" viewBox="0 0 22 22" fill="none" xmlns="http://www.w3.org/2000/svg">
<path d="M15.7731 8.06025C15.4156 7.70229 14.8344 7.70229 14.4769 8.06025L10.5417 11.995L8.89808 10.3519C8.54058 9.99396 7.95941 9.99396 7.60191 10.3519C7.24396 10.7099 7.24396 11.2901 7.60191 11.6481L9.89358 13.9397C10.0723 14.119 10.307 14.2083 10.5417 14.2083C10.7763 14.2083 11.011 14.119 11.1897 13.9397L15.7731 9.35641C16.131 8.99846 16.131 8.41821 15.7731 8.06025Z" fill="currentColor"/>
<path d="M21.0833 10.0833C20.5773 10.0833 20.1667 10.494 20.1667 11C20.1667 16.0545 16.0545 20.1667 11 20.1667C5.9455 20.1667 1.83333 16.0545 1.83333 11C1.83333 5.9455 5.9455 1.83333 11 1.83333C13.4608 1.83333 15.7708 2.79492 17.5051 4.54117C17.8612 4.90096 18.442 4.90279 18.8013 4.54575C19.1606 4.18917 19.1625 3.60892 18.8059 3.24958C16.725 1.15408 13.9526 0 11 0C4.93442 0 0 4.93442 0 11C0 17.0656 4.93442 22 11 22C17.0656 22 22 17.0656 22 11C22 10.494 21.5893 10.0833 21.0833 10.0833Z" fill="currentColor"/>
</svg>
