<svg width="40" height="40" viewBox="0 0 40 40" fill="none" xmlns="http://www.w3.org/2000/svg">
<g clip-path="url(#clip0_17498_5759)">
<path d="M7.12969 16.2355C6.91719 16.2355 6.71156 16.1568 6.5532 16.0134L5.07195 14.6733C4.72 14.3548 4.69281 13.8114 5.01125 13.4595C5.32961 13.1076 5.87312 13.0803 6.22508 13.3988L7.05859 14.1529L9.46179 11.4083C9.77437 11.0512 10.3173 11.0152 10.6745 11.3278C11.0315 11.6405 11.0675 12.1834 10.7548 12.5405L7.77625 15.9423C7.62453 16.1155 7.40953 16.2206 7.17961 16.2341C7.16289 16.2351 7.14625 16.2355 7.12969 16.2355Z" fill="#A6AEBF"/>
<path d="M20.9639 16.1891H14.2036C13.729 16.1891 13.3442 15.8043 13.3442 15.3297C13.3442 14.8551 13.729 14.4703 14.2036 14.4703H20.9639C21.4385 14.4703 21.8233 14.8551 21.8233 15.3297C21.8233 15.8043 21.4385 16.1891 20.9639 16.1891Z" fill="currentColor"/>
<path d="M20.9639 21.1215H5.55078C5.07617 21.1215 4.69141 20.7367 4.69141 20.2621C4.69141 19.7875 5.07617 19.4027 5.55078 19.4027H20.9639C21.4385 19.4027 21.8233 19.7875 21.8233 20.2621C21.8233 20.7367 21.4385 21.1215 20.9639 21.1215Z" fill="currentColor"/>
<path d="M7.12969 29.8675C6.91719 29.8675 6.71156 29.7887 6.5532 29.6454L5.07195 28.3052C4.72 27.9868 4.69281 27.4434 5.01125 27.0914C5.32961 26.7394 5.87312 26.7123 6.22508 27.0307L7.05859 27.7848L9.46179 25.0402C9.77437 24.683 10.3173 24.647 10.6745 24.9597C11.0316 25.2723 11.0676 25.8153 10.7549 26.1723L7.77625 29.5742C7.62453 29.7475 7.40953 29.8527 7.17961 29.866C7.16289 29.867 7.14625 29.8675 7.12969 29.8675Z" fill="#A6AEBF"/>
<path d="M21.2752 29.8165H14.2035C13.7289 29.8165 13.3441 29.4317 13.3441 28.9571C13.3441 28.4825 13.7289 28.0977 14.2035 28.0977H21.2752C21.7499 28.0977 22.1346 28.4825 22.1346 28.9571C22.1346 29.4317 21.7499 29.8165 21.2752 29.8165Z" fill="currentColor"/>
<path d="M20.9639 34.6784H5.55078C5.07617 34.6784 4.69141 34.2937 4.69141 33.8191C4.69141 33.3445 5.07617 32.9597 5.55078 32.9597H20.9639C21.4385 32.9597 21.8233 33.3445 21.8233 33.8191C21.8233 34.2937 21.4385 34.6784 20.9639 34.6784Z" fill="currentColor"/>
<path d="M37.3884 0H14.7475C14.6661 0.000390625 14.3659 0.0132812 14.0477 0.157578C13.8005 0.102031 13.5441 0.0722656 13.2814 0.0722656C11.6587 0.0722656 10.27 1.19195 9.86235 2.69914H8.34407C7.59024 2.69914 6.97688 3.3125 6.97688 4.06633V4.28297H2.45946C1.12586 4.28297 0.040863 5.36797 0.040863 6.70156V37.5815C0.040863 38.915 1.12579 40 2.45946 40H24.1035C25.3057 40 26.3055 39.1182 26.4909 37.9676H37.5881C37.6819 37.9676 37.7737 37.9523 37.8605 37.9233C39.0688 37.6994 39.9591 36.6434 39.9591 35.3968V2.57078C39.9591 1.15328 38.8059 0 37.3884 0ZM10.6013 4.41781C11.0692 4.41781 11.4511 4.04352 11.4606 3.5757C11.4803 2.59156 12.2972 1.79094 13.2816 1.79094C14.2659 1.79094 15.0827 2.59156 15.1026 3.5757C15.112 4.04352 15.4939 4.41781 15.9618 4.41781H17.8674V6.38711H8.69563V4.41781H10.6013ZM24.8034 37.5814C24.8034 37.9673 24.4894 38.2812 24.1035 38.2812H2.45946C2.0736 38.2812 1.75961 37.9673 1.75961 37.5814V6.70148C1.75961 6.31562 2.0736 6.00164 2.45946 6.00164H6.97696V6.58406C6.97696 7.42313 7.65961 8.10586 8.49875 8.10586H18.0643C18.9034 8.10586 19.5861 7.4232 19.5861 6.58406V6.00164H24.1036C24.4895 6.00164 24.8034 6.31562 24.8034 6.70148V37.5814H24.8034ZM38.2404 35.3968C38.2404 35.8297 37.9165 36.1932 37.487 36.2423C37.4716 36.2441 37.4563 36.2463 37.4411 36.2488H26.5221V6.70148C26.5221 5.36789 25.4371 4.28289 24.1035 4.28289H19.586V4.08117C19.586 3.31906 18.966 2.69906 18.2039 2.69906H16.7006C16.6056 2.34805 16.4569 2.01844 16.2649 1.71875H37.3884C37.8582 1.71875 38.2404 2.10102 38.2404 2.57078V35.3968Z" fill="currentColor"/>
</g>
<defs>
<clipPath id="clip0_17498_5759">
<rect width="40" height="40" fill="white"/>
</clipPath>
</defs>
</svg>
