<svg width="24" height="24" viewBox="0 0 24 24" fill="none" xmlns="http://www.w3.org/2000/svg">
<g opacity="0.5">
<path d="M12 4.26562C7.73525 4.26562 4.26562 7.73525 4.26562 12C4.26562 16.2647 7.73525 19.7344 12 19.7344C16.2647 19.7344 19.7344 16.2647 19.7344 12C19.7344 7.73525 16.2647 4.26562 12 4.26562ZM16.9219 12.7031H11.2969V5.67188H12.7031V11.2969H16.9219V12.7031Z" fill="currentColor"/>
<path d="M12 0C5.40894 0 0 5.40894 0 12C0 18.5911 5.40894 24 12 24C18.5911 24 24 18.5911 24 12C24 5.40894 18.5911 0 12 0ZM12 21.1875C6.96006 21.1875 2.8125 17.0399 2.8125 12C2.8125 6.96006 6.96006 2.8125 12 2.8125C17.0399 2.8125 21.1875 6.96006 21.1875 12C21.1875 17.0399 17.0399 21.1875 12 21.1875Z" fill="currentColor"/>
</g>
</svg>
