<svg width="18" height="19" viewBox="0 0 18 19" fill="none" xmlns="http://www.w3.org/2000/svg">
<path d="M8.71775 9.41937C12.9801 9.41937 16.4355 7.53463 16.4355 5.20968C16.4355 2.88474 12.9801 1 8.71775 1C4.45536 1 1 2.88474 1 5.20968C1 7.53463 4.45536 9.41937 8.71775 9.41937Z" stroke="currentColor" stroke-width="1.5" stroke-linecap="round" stroke-linejoin="round"/>
<path d="M1 5.20972V9.4194C1 11.7443 4.45536 13.6291 8.71775 13.6291C12.9801 13.6291 16.4355 11.7443 16.4355 9.4194V5.20972" stroke="currentColor" stroke-width="1.5" stroke-linecap="round" stroke-linejoin="round"/>
<path d="M1 9.41943V13.6291C1 15.9541 4.45536 17.8388 8.71775 17.8388C12.9801 17.8388 16.4355 15.9541 16.4355 13.6291V9.41943" stroke="currentColor" stroke-width="1.5" stroke-linecap="round" stroke-linejoin="round"/>
</svg>
