<svg width="18" height="20" viewBox="0 0 18 20" fill="none" xmlns="http://www.w3.org/2000/svg">
<path d="M9.16147 10.0166L9.06836 19.0332" stroke="currentColor" stroke-width="1.5" stroke-linecap="round" stroke-linejoin="round"/>
<path d="M17.1371 14.1678V5.86554C17.1371 5.74129 17.1041 5.61927 17.0415 5.51196C16.9789 5.40464 16.8889 5.31588 16.7807 5.25474L9.41379 1.09082C9.30847 1.03128 9.18954 1 9.06856 1C8.94758 1 8.82865 1.03128 8.72332 1.09082L1.35638 5.25474C1.24821 5.31588 1.15822 5.40464 1.09561 5.51196C1.03299 5.61927 1 5.74129 1 5.86554V14.1678C1 14.292 1.03299 14.4141 1.09561 14.5214C1.15822 14.6287 1.24821 14.7174 1.35638 14.7786L8.72332 18.9425C8.82865 19.002 8.94758 19.0333 9.06856 19.0333C9.18954 19.0333 9.30847 19.002 9.41379 18.9425L16.7807 14.7786C16.8889 14.7174 16.9789 14.6287 17.0415 14.5214C17.1041 14.4141 17.1371 14.292 17.1371 14.1678V14.1678Z" stroke="currentColor" stroke-width="1.5" stroke-linecap="round" stroke-linejoin="round"/>
<path d="M17.0409 5.51097L9.16164 10.0165L1.09668 5.51001" stroke="currentColor" stroke-width="1.5" stroke-linecap="round" stroke-linejoin="round"/>
</svg>
