<svg width="20" height="20" viewBox="0 0 20 20" fill="none" xmlns="http://www.w3.org/2000/svg">
<path d="M19.9674 10.4697C19.8396 10.1718 19.584 9.95897 19.2858 9.9164L14.9411 9.278L14.217 7.74585L15.3244 6.59674C15.5374 6.38395 15.6226 6.04345 15.5374 5.74556C15.4096 5.44763 15.154 5.23484 14.8559 5.19227L10.5111 4.55387L8.55172 0.468143C8.38136 0.170252 8.12579 0 7.78504 0C7.44429 0 7.14611 0.170252 7.01832 0.468143L5.05892 4.55387L0.714181 5.19227C0.37343 5.23484 0.117858 5.44767 0.03264 5.74556C-0.0525376 6.04349 0.03264 6.38395 0.245604 6.59674L3.44026 9.78872L2.67359 14.3001C2.63098 14.598 2.75876 14.9385 3.01434 15.1087C3.26991 15.279 3.61066 15.3215 3.90884 15.1513L6.89054 13.534L7.87022 14.5129L7.14607 19.0242C7.10346 19.3221 7.23125 19.6626 7.48682 19.8328C7.74239 20.0031 8.08314 20.0456 8.38133 19.8754L12.2575 17.79L16.1337 19.9179C16.4319 20.0882 16.8578 19.9605 16.9431 19.8328C17.1986 19.6626 17.3264 19.3221 17.2838 19.0242L16.5597 14.5128L19.7544 11.3209C19.9674 11.1081 20.0525 10.7676 19.9674 10.4697ZM8.12579 11.3634C7.99801 11.3209 7.87022 11.2783 7.74243 11.2783C7.61465 11.2783 7.48686 11.3209 7.35907 11.406L4.54777 12.8956L5.10153 9.66104C5.14414 9.40568 5.05892 9.10775 4.88856 8.93754L2.58841 6.59674L5.74046 6.1286C6.03864 6.08602 6.25161 5.91581 6.37939 5.66045L7.78504 2.76641L9.14808 5.70303C9.27587 5.95838 9.53144 6.12864 9.78702 6.17117L12.9391 6.63931L10.6389 8.93754C10.4685 9.10779 10.3833 9.40568 10.4259 9.66104L10.9371 12.8956L8.12579 11.3634ZM15.1115 13.6617C14.9411 13.8319 14.8559 14.1298 14.8985 14.3852L15.4523 17.6197L12.641 16.0876C12.3854 15.9599 12.0872 15.9599 11.8316 16.0876L9.02034 17.5771L9.57409 14.3426C9.57409 14.2575 9.57409 14.1298 9.57409 14.0447L11.6613 15.1938C11.7891 15.2363 11.9169 15.2789 12.0446 15.2789C12.5132 15.2789 12.8965 14.8958 12.8965 14.4702C12.8965 14.3851 12.8965 14.3 12.8539 14.2149L12.1297 9.83129L12.9816 8.98011L13.6206 10.3846C13.7484 10.6399 14.0039 10.8102 14.2595 10.8527L17.4116 11.3634L15.1115 13.6617Z" fill="currentColor"/>
</svg>
