<svg xmlns="http://www.w3.org/2000/svg" width="14" height="14" viewBox="0 0 14 14">
  <g id="Solid" transform="translate(-24 -24)">
    <path id="Path_11277" data-name="Path 11277" d="M144.434,34.892a.724.724,0,0,0,1.024,0l2.731-2.731a.724.724,0,1,0-1.024-1.024l-1.495,1.495V24.724a.724.724,0,0,0-1.448,0v7.907l-1.495-1.495a.724.724,0,1,0-1.024,1.024Z" transform="translate(-113.946)" fill="currentColor"/>
    <path id="Path_11278" data-name="Path 11278" d="M37.276,232a.724.724,0,0,0-.724.724v5.552h-11.1v-5.552a.724.724,0,0,0-1.448,0v5.793a1.207,1.207,0,0,0,1.207,1.207H36.794A1.207,1.207,0,0,0,38,238.517v-5.793A.724.724,0,0,0,37.276,232Z" transform="translate(0 -201.724)" fill="currentColor"/>
  </g>
</svg>
