<svg width="18" height="18" viewBox="0 0 18 18" fill="none" xmlns="http://www.w3.org/2000/svg">
<path d="M17.1818 3.27273H14.7273V0.818182C14.7273 0.366327 14.3609 0 13.9091 0H0.818182C0.366327 0 0 0.366327 0 0.818182V13.9091C0 14.3609 0.366327 14.7273 0.818182 14.7273H3.27273V17.1818C3.27273 17.6337 3.63905 18 4.09091 18H17.1818C17.6337 18 18 17.6337 18 17.1818V4.09091C18 3.63905 17.6337 3.27273 17.1818 3.27273ZM1.63636 1.63636H13.0909V13.0909H4.09145C4.09124 13.0909 4.09113 13.0909 4.09091 13.0909C4.09075 13.0909 4.09058 13.0909 4.09036 13.0909H1.63636V1.63636ZM16.3636 16.3636H4.90909V14.7273H13.9091C14.3609 14.7273 14.7273 14.3609 14.7273 13.9091V4.90909H16.3636V16.3636Z" fill="currentColor"/>
</svg>
