<svg width="17" height="17" viewBox="0 0 17 17" fill="none" xmlns="http://www.w3.org/2000/svg">
<path d="M13.9641 8.5C13.6288 8.5 13.3569 8.77183 13.3569 9.10716V15.1786C13.3569 15.5139 13.0851 15.7857 12.7498 15.7857H1.82141C1.48608 15.7857 1.21426 15.5139 1.21426 15.1786V3.03572C1.21426 2.70039 1.48608 2.42856 1.82141 2.42856H9.10703C9.44235 2.42856 9.71417 2.15673 9.71417 1.82141C9.71417 1.48608 9.44235 1.21429 9.10703 1.21429H1.82141C0.81547 1.21429 0 2.02977 0 3.03572V15.1786C0 16.1845 0.81547 17 1.82141 17H12.7498C13.7558 17 14.5712 16.1845 14.5712 15.1786V9.10713C14.5712 8.77183 14.2994 8.5 13.9641 8.5Z" fill="currentColor"/>
<path d="M16.3194 0.68084C15.8835 0.244835 15.2922 -6.1544e-05 14.6757 9.6056e-06C14.0588 -0.00176913 13.4669 0.243555 13.0322 0.681231L5.03496 8.67788C4.96861 8.74472 4.91856 8.82598 4.88864 8.91527L3.67439 12.5581C3.56841 12.8763 3.74041 13.2201 4.05855 13.326C4.12027 13.3466 4.18491 13.3571 4.24994 13.3571C4.31511 13.357 4.3799 13.3466 4.44179 13.3262L8.0846 12.1119C8.17407 12.082 8.25536 12.0317 8.32199 11.965L16.3192 3.9677C17.2268 3.06012 17.227 1.58853 16.3194 0.68084Z" fill="currentColor"/>
</svg>
