<svg width="21" height="14" viewBox="0 0 21 14" fill="none" xmlns="http://www.w3.org/2000/svg">
<path d="M20.9207 6.66625C19.1646 3.16079 15.1713 0 10.5 0C5.24391 0 1.46583 3.89846 0.0793076 6.66625C-0.0264359 6.87741 -0.0264359 7.12259 0.0793076 7.33375C1.83545 10.8392 5.82871 14 10.5 14C15.7561 14 19.5342 10.1014 20.9207 7.33375C21.0264 7.12259 21.0264 6.87741 20.9207 6.66625ZM10.5 12.4444C6.72079 12.4444 3.58743 10.083 1.74941 7C3.57974 3.9296 6.71118 1.55556 10.5 1.55556C14.2789 1.55556 17.4126 3.91669 19.2506 7C17.4203 10.0702 14.2888 12.4444 10.5 12.4444ZM10.5 3.11111C8.23837 3.11111 6.39844 4.85564 6.39844 7C6.39844 9.14436 8.23837 10.8889 10.5 10.8889C12.7616 10.8889 14.6016 9.14436 14.6016 7C14.6016 4.85564 12.7616 3.11111 10.5 3.11111ZM10.5 9.33333C9.14312 9.33333 8.03906 8.28652 8.03906 7C8.03906 5.71333 9.14312 4.66667 10.5 4.66667C11.857 4.66667 12.9609 5.71333 12.9609 7C12.9609 8.28652 11.857 9.33333 10.5 9.33333Z" fill="currentColor"/>
</svg>
