<svg width="22" height="22" viewBox="0 0 22 22" fill="none" xmlns="http://www.w3.org/2000/svg">
<path d="M11 4.76201C9.142 4.76201 7.6304 6.27361 7.6304 8.13162C7.6304 9.98963 9.142 11.5012 11 11.5012C12.858 11.5012 14.3696 9.98963 14.3696 8.13162C14.3696 6.27361 12.858 4.76201 11 4.76201ZM11 9.83039C10.0632 9.83039 9.30128 9.06817 9.30128 8.13166C9.30128 7.19486 10.0632 6.43294 11 6.43294C11.9366 6.43294 12.6987 7.19486 12.6987 8.13166C12.6987 9.06847 11.9366 9.83039 11 9.83039Z" fill="currentColor"/>
<path d="M11 9.85823C10.5386 9.85823 10.1646 10.2322 10.1646 10.6937V20.6076C10.1646 21.069 10.5386 21.443 11 21.443C11.4614 21.443 11.8354 21.069 11.8354 20.6076V10.6937C11.8354 10.2322 11.4614 9.85823 11 9.85823Z" fill="currentColor"/>
<path d="M11 0.556961C10.5386 0.556961 10.1646 0.930961 10.1646 1.3924V5.59745C10.1646 6.05889 10.5386 6.43289 11 6.43289C11.4614 6.43289 11.8354 6.05889 11.8354 5.59745V1.3924C11.8354 0.930961 11.4614 0.556961 11 0.556961Z" fill="currentColor"/>
<path d="M18.6304 10.4987C16.7726 10.4987 15.2608 12.0103 15.2608 13.8683C15.2608 15.7263 16.7726 17.2379 18.6304 17.2379C20.4884 17.2379 22 15.7263 22 13.8683C22 12.0103 20.4881 10.4987 18.6304 10.4987ZM18.6304 15.5674C17.6933 15.5674 16.9314 14.8051 16.9314 13.8683C16.9314 12.9315 17.6936 12.1696 18.6304 12.1696C19.5672 12.1696 20.3291 12.9318 20.3291 13.8683C20.3291 14.8054 19.5669 15.5674 18.6304 15.5674Z" fill="currentColor"/>
<path d="M18.6304 15.5671C18.169 15.5671 17.795 15.9411 17.795 16.4025V20.6076C17.795 21.069 18.169 21.443 18.6304 21.443C19.0921 21.443 19.4658 21.069 19.4658 20.6076V16.4025C19.4658 15.9411 19.0918 15.5671 18.6304 15.5671Z" fill="currentColor"/>
<path d="M18.6304 0.556961C18.169 0.556961 17.795 0.930961 17.795 1.3924V11.3063C17.795 11.7678 18.169 12.1418 18.6304 12.1418C19.0921 12.1418 19.4658 11.7678 19.4658 11.3063V1.3924C19.4658 0.930961 19.0918 0.556961 18.6304 0.556961Z" fill="currentColor"/>
<path d="M3.36961 10.4987C1.5116 10.4987 0 12.0103 0 13.8683C0 15.7263 1.5116 17.2379 3.36961 17.2379C5.22762 17.2379 6.73922 15.7263 6.73922 13.8683C6.73926 12.0103 5.22766 10.4987 3.36961 10.4987ZM3.36961 15.5674C2.4328 15.5674 1.67088 14.8051 1.67088 13.8683C1.67088 12.9315 2.4328 12.1696 3.36961 12.1696C4.30641 12.1696 5.06834 12.9318 5.06834 13.8683C5.06834 14.8054 4.30641 15.5674 3.36961 15.5674Z" fill="currentColor"/>
<path d="M3.36962 15.5671C2.90818 15.5671 2.53418 15.9411 2.53418 16.4025V20.6076C2.53418 21.069 2.90818 21.443 3.36962 21.443C3.83106 21.443 4.20506 21.069 4.20506 20.6076V16.4025C4.20506 15.9411 3.83106 15.5671 3.36962 15.5671Z" fill="currentColor"/>
<path d="M3.36962 0.556961C2.90818 0.556961 2.53418 0.930961 2.53418 1.3924V11.3063C2.53418 11.7678 2.90818 12.1418 3.36962 12.1418C3.83106 12.1418 4.20506 11.7678 4.20506 11.3063V1.3924C4.20506 0.930961 3.83106 0.556961 3.36962 0.556961Z" fill="currentColor"/>
</svg>
