<svg width="32" height="32" viewBox="0 0 32 32" fill="none" xmlns="http://www.w3.org/2000/svg">
<path d="M2.28571 22.8571H0V2.28571C0.000605116 1.67969 0.241615 1.09866 0.670138 0.670139C1.09866 0.241615 1.67969 0.000605116 2.28571 0H22.8571V2.28571H2.28571V22.8571ZM21.7143 17.1429C22.3924 17.1429 23.0553 16.9418 23.6191 16.565C24.1829 16.1883 24.6224 15.6528 24.8819 15.0263C25.1414 14.3999 25.2093 13.7105 25.077 13.0454C24.9447 12.3803 24.6181 11.7694 24.1387 11.2899C23.6592 10.8104 23.0482 10.4839 22.3832 10.3516C21.7181 10.2193 21.0287 10.2872 20.4022 10.5467C19.7757 10.8062 19.2403 11.2456 18.8635 11.8095C18.4868 12.3733 18.2857 13.0362 18.2857 13.7143C18.2866 14.6233 18.6481 15.4949 19.2909 16.1376C19.9337 16.7804 20.8053 17.142 21.7143 17.1429ZM21.7143 12.5714C21.9403 12.5714 22.1613 12.6385 22.3492 12.764C22.5372 12.8896 22.6836 13.0681 22.7701 13.2769C22.8566 13.4858 22.8793 13.7156 22.8352 13.9372C22.7911 14.1589 22.6822 14.3626 22.5224 14.5224C22.3626 14.6822 22.1589 14.7911 21.9372 14.8352C21.7156 14.8793 21.4858 14.8566 21.2769 14.7701C21.0681 14.6836 20.8896 14.5372 20.764 14.3492C20.6385 14.1613 20.5714 13.9403 20.5714 13.7143C20.5714 13.4112 20.6918 13.1205 20.9062 12.9062C21.1205 12.6918 21.4112 12.5714 21.7143 12.5714Z" fill="currentColor"/>
<path d="M29.7144 5.71423H8.00007C7.39405 5.71484 6.81302 5.95585 6.38449 6.38437C5.95597 6.8129 5.71496 7.39392 5.71436 7.99995V29.7142C5.71496 30.3203 5.95597 30.9013 6.38449 31.3298C6.81302 31.7583 7.39405 31.9993 8.00007 31.9999H29.7144C30.3204 31.9993 30.9014 31.7583 31.3299 31.3298C31.7585 30.9013 31.9995 30.3203 32.0001 29.7142V7.99995C31.9995 7.39392 31.7585 6.8129 31.3299 6.38437C30.9014 5.95585 30.3204 5.71484 29.7144 5.71423ZM29.7144 29.7142H8.00007V22.8571L12.5715 18.2891L18.9555 24.6731C19.3841 25.1016 19.9654 25.3423 20.5715 25.3423C21.1776 25.3423 21.7589 25.1016 22.1875 24.6731L24.0001 22.8605L29.7144 28.5714V29.7142ZM29.7144 25.3394L25.6161 21.2411C25.1874 20.8126 24.6062 20.5719 24.0001 20.5719C23.394 20.5719 22.8127 20.8126 22.3841 21.2411L20.5715 23.0537L14.1875 16.6697C13.7589 16.2412 13.1776 16.0004 12.5715 16.0004C11.9654 16.0004 11.3841 16.2412 10.9555 16.6697L8.00007 19.6251V7.99995H29.7144V25.3394Z" fill="currentColor"/>
</svg>
