<svg width="24" height="26" viewBox="0 0 24 26" fill="none" xmlns="http://www.w3.org/2000/svg">
<path d="M1.07739 2.26576C1.11418 2.41074 1.21581 2.53076 1.35281 2.5909C1.4898 2.65104 1.64687 2.64466 1.77857 2.5736L2.17174 2.36135V7.09855C2.17174 7.36666 2.38911 7.58403 2.65722 7.58403H3.61104C3.87915 7.58403 4.09652 7.36666 4.09652 7.09855V0.593633C4.09652 0.325528 3.87915 0.108154 3.61104 0.108154H2.88358C2.74877 0.108154 2.61598 0.141416 2.49713 0.205082L1.12166 0.941196C0.924947 1.04652 0.825332 1.27238 0.880179 1.48866L1.07739 2.26576Z" fill="currentColor"/>
<path d="M12.5859 7.0985V6.26251C12.5859 5.99441 12.3685 5.77703 12.1004 5.77703H10.5171C11.6283 4.6685 12.4287 3.66167 12.4287 2.40169C12.4287 1.24503 11.6463 0 9.92865 0C9.12963 0 8.36269 0.275917 7.76928 0.777019L7.73501 0.805912C7.56929 0.945929 7.51654 1.17892 7.60583 1.37664L7.93155 2.09781C7.99396 2.23606 8.11743 2.3371 8.26526 2.37112C8.41309 2.40514 8.56822 2.36801 8.6848 2.271L8.74477 2.22111C8.93048 2.06639 9.30811 1.80694 9.75185 1.80694C10.2652 1.80694 10.4745 2.01062 10.4745 2.50425C10.467 3.24288 9.81736 3.97925 8.26207 5.45946L7.56618 6.13518C7.47203 6.22656 7.41895 6.35222 7.41895 6.48342V7.0985C7.41895 7.3666 7.63632 7.58397 7.90442 7.58397H12.1004C12.3685 7.58397 12.5859 7.3666 12.5859 7.0985Z" fill="currentColor"/>
<path d="M14.7191 7.14486L14.7579 7.17031C15.1247 7.41103 15.8578 7.69207 16.7173 7.69207C18.6915 7.69207 19.5907 6.41647 19.5907 5.23142C19.5907 4.52873 19.2729 3.91281 18.7431 3.50729C19.1302 3.12445 19.3451 2.62587 19.3451 2.06774C19.3451 1.07175 18.6027 0 16.9728 0C16.101 0 15.3543 0.321777 14.9797 0.597274L14.9441 0.623396C14.771 0.750645 14.7022 0.976586 14.7748 1.17876L15.0423 1.9231C15.0938 2.06623 15.2093 2.17693 15.3545 2.22229C15.4996 2.26756 15.6577 2.24228 15.7814 2.15383L15.8452 2.10822C16.0688 1.94838 16.4525 1.78712 16.8056 1.78712C17.3809 1.78712 17.3809 2.08009 17.3809 2.20523C17.3809 2.64267 16.7293 2.74111 16.5011 2.74111H15.9603C15.6922 2.74111 15.4748 2.95848 15.4748 3.22659V3.9937C15.4748 4.2618 15.6922 4.47918 15.9603 4.47918H16.5011C16.7586 4.47918 17.5993 4.53234 17.6069 5.22159C17.6084 5.30373 17.5948 5.51212 17.4357 5.67414C17.2488 5.86464 16.9365 5.90462 16.7074 5.90462C16.2481 5.90462 15.7853 5.71513 15.5864 5.58772L15.5233 5.54731C15.3985 5.46744 15.2439 5.44896 15.1038 5.49717C14.9636 5.54538 14.8532 5.65491 14.8039 5.79467L14.5277 6.57724C14.4534 6.78806 14.5323 7.02223 14.7191 7.14486Z" fill="currentColor"/>
<path d="M5.28089 15.8681H4.87226V12.3844C4.87226 12.1163 4.65489 11.8989 4.38678 11.8989H3.36316C3.20458 11.8989 3.05608 11.9764 2.9652 12.1063L0.0875206 16.2242C0.0305734 16.3058 0 16.4028 0 16.5023V17.1502C0 17.4184 0.217374 17.6357 0.485479 17.6357H2.96713V18.8892C2.96713 19.1573 3.18451 19.3747 3.45261 19.3747H4.38678C4.65489 19.3747 4.87226 19.1573 4.87226 18.8892V17.6357H5.28089C5.54899 17.6357 5.76637 17.4184 5.76637 17.1502V16.3536C5.76637 16.0855 5.54899 15.8681 5.28089 15.8681ZM2.96713 15.8681H2.4683L2.96713 15.1747V15.8681Z" fill="currentColor"/>
<path d="M22.9348 22.1516L19.2284 18.4453C19.189 18.4059 19.1476 18.3696 19.1057 18.3344C20.1672 16.1642 19.7989 13.4655 17.9975 11.6639C15.7304 9.39678 12.0416 9.39694 9.77445 11.6639C7.50748 13.931 7.50748 17.6199 9.77445 19.8869C10.908 21.0205 12.397 21.5873 13.886 21.5873C14.7634 21.5873 15.6402 21.3888 16.4449 20.9952C16.4801 21.0371 16.5163 21.0784 16.5557 21.1178L20.2621 24.8242C20.6312 25.1932 21.1148 25.3777 21.5985 25.3777C22.0821 25.3777 22.5658 25.1932 22.9348 24.8242C23.6728 24.0863 23.6728 22.8897 22.9348 22.1516ZM11.5561 18.1053C10.2715 16.8207 10.2715 14.7304 11.5561 13.4457C12.1985 12.8035 13.0421 12.4823 13.8859 12.4823C14.7297 12.4823 15.5734 12.8034 16.2157 13.4457C17.5003 14.7304 17.5003 16.8207 16.2157 18.1053C14.9311 19.39 12.8408 19.39 11.5561 18.1053Z" fill="currentColor"/>
</svg>
