<svg width="12" height="12" viewBox="0 0 12 12" fill="none" xmlns="http://www.w3.org/2000/svg">
<path d="M11.8151 3.846C11.7629 3.81793 11.7056 3.804 11.6484 3.804C11.5808 3.804 11.5133 3.8235 11.4548 3.86213L6 7.46159L0.54518 3.86215C0.486656 3.82353 0.41918 3.80403 0.351516 3.80403C0.294398 3.80403 0.23707 3.81795 0.184945 3.84603C0.0710391 3.90732 0 4.02622 0 4.15559V11.6484C0 11.8426 0.157383 12 0.351562 12H11.6484C11.8426 12 12 11.8426 12 11.6484V4.15559C12 4.02622 11.929 3.90732 11.8151 3.846Z" fill="currentColor"/>
<path d="M6.19501 0.0590449C6.07691 -0.0196816 5.92306 -0.0196816 5.80501 0.0590449L0.956657 3.29124L6.00001 6.61918L11.0433 3.29124L6.19501 0.0590449Z" fill="currentColor"/>
</svg>
