<svg width="21" height="20" viewBox="0 0 21 20" fill="none" xmlns="http://www.w3.org/2000/svg">
<path d="M12.2054 7.79547C11.9684 7.55715 11.7057 7.3459 11.422 7.16558C10.6706 6.6846 9.79715 6.42902 8.90495 6.42902C7.66661 6.42672 6.47859 6.91859 5.60448 7.79547L1.36387 12.038C0.491243 12.9121 0.000782328 14.0963 9.66319e-07 15.3311C-0.00163989 17.908 2.08663 19.9983 4.66434 20C5.90077 20.0043 7.0877 19.5148 7.96149 18.6402L11.462 15.1408C11.5256 15.0778 11.5611 14.9918 11.5606 14.9023C11.5595 14.7182 11.4094 14.5699 11.2253 14.5709H11.0919C10.3606 14.5735 9.63576 14.4331 8.95832 14.1577C8.83349 14.1063 8.69003 14.1353 8.59494 14.231L6.0779 16.7505C5.29631 17.5319 4.02909 17.5319 3.2475 16.7505C2.4659 15.9692 2.4659 14.7024 3.2475 13.921L7.50479 9.66846C8.28576 8.88871 9.5509 8.88871 10.3319 9.66846C10.8582 10.1636 11.6792 10.1636 12.2055 9.66846C12.4319 9.4419 12.5692 9.1414 12.5922 8.82193C12.6165 8.44016 12.4757 8.06628 12.2054 7.79547Z" fill="currentColor"/>
<path d="M18.6363 1.36667C16.8135 -0.455555 13.8581 -0.455555 12.0353 1.36667L8.53813 4.85938C8.4421 4.95585 8.4144 5.10094 8.46812 5.22599C8.52121 5.3514 8.64529 5.4319 8.78148 5.42928H8.90482C9.63532 5.42795 10.359 5.56945 11.0351 5.84589C11.1599 5.89724 11.3034 5.86826 11.3985 5.77258L13.9089 3.26634C14.6905 2.48499 15.9577 2.48499 16.7393 3.26634C17.5209 4.04768 17.5209 5.31449 16.7393 6.09584L13.6121 9.21862L13.5855 9.24861L12.492 10.3351C11.711 11.1149 10.4459 11.1149 9.66489 10.3351C9.13857 9.83992 8.31759 9.83992 7.7913 10.3351C7.56342 10.5634 7.42602 10.8665 7.40457 11.1883C7.38019 11.57 7.52103 11.9439 7.7913 12.2148C8.17718 12.6022 8.62865 12.9181 9.12481 13.1479C9.19482 13.1812 9.26483 13.2079 9.33484 13.2379C9.40485 13.2679 9.47819 13.2912 9.5482 13.3179C9.61821 13.3446 9.69154 13.3679 9.76155 13.3879L9.95825 13.4412C10.0916 13.4745 10.225 13.5012 10.3616 13.5245C10.5263 13.549 10.6921 13.5645 10.8584 13.5712H11.0917H11.1117L11.3118 13.5479C11.3851 13.5445 11.4618 13.5279 11.5485 13.5279H11.6618L11.8919 13.4946L11.9985 13.4746L12.1919 13.4346H12.2286C13.0475 13.2289 13.7952 12.8051 14.3922 12.2081L18.6361 7.96552C20.4591 6.14329 20.4591 3.18889 18.6363 1.36667Z" fill="currentColor"/>
</svg>
