<svg width="15" height="18" viewBox="0 0 15 18" fill="none" xmlns="http://www.w3.org/2000/svg">
<path fill-rule="evenodd" clip-rule="evenodd" d="M0 2C0 0.895431 0.89543 0 2 0H13C14.1046 0 15 0.89543 15 2V16C15 17.1046 14.1046 18 13 18H2C0.895431 18 0 17.1046 0 16V2ZM13 2H2V16H13V2ZM4 5C4 4.44772 4.44772 4 5 4H10.5C11.0523 4 11.5 4.44772 11.5 5C11.5 5.55228 11.0523 6 10.5 6H5C4.44772 6 4 5.55228 4 5ZM4 9C4 8.44772 4.44772 8 5 8H9.5C10.0523 8 10.5 8.44772 10.5 9C10.5 9.55229 10.0523 10 9.5 10H5C4.44772 10 4 9.55229 4 9ZM4 13C4 12.4477 4.44772 12 5 12H10.5C11.0523 12 11.5 12.4477 11.5 13C11.5 13.5523 11.0523 14 10.5 14H5C4.44772 14 4 13.5523 4 13Z" fill="currentColor"/>
</svg>
