<svg width="17" height="18" viewBox="0 0 17 18" fill="none" xmlns="http://www.w3.org/2000/svg">
<path d="M14.7801 10.1464V3.13801C14.7801 2.2333 14.0575 1.50001 13.1661 1.50001H11.0852V1.14226C11.0852 0.511277 10.5814 0 9.95971 0H4.82068C4.19898 0 3.69517 0.511277 3.69517 1.14226V1.50001H1.61398C0.722538 1.50001 0 2.2333 0 3.13801V16.362C0 17.2667 0.722538 18 1.61398 18H11.824C14.2726 18 16.2581 15.9849 16.2581 13.5C16.2581 12.1676 15.687 10.9705 14.7801 10.1464ZM5.17319 1.50001H9.60707V3.00002H5.17319V1.50001ZM1.61398 16.5C1.53881 16.5 1.47802 16.4383 1.47802 16.362V3.13801C1.47802 3.06172 1.53881 3.00002 1.61398 3.00002H3.69503V3.35777C3.69503 3.98872 4.19881 4.5 4.82054 4.5H9.95971C10.5814 4.5 11.0852 3.98872 11.0852 3.35774V2.99999H13.1661C13.2413 2.99999 13.3021 3.06169 13.3021 3.13798V9.25646C12.9264 9.12168 12.5275 9.03684 12.1131 9.00974C12.1105 9.00956 12.1078 9.00939 12.1052 9.00921C12.0787 9.00752 12.0521 9.00598 12.0254 9.00478C12.0106 9.00408 11.9958 9.00362 11.9809 9.00306C11.9632 9.00243 11.9455 9.00169 11.9278 9.0013C11.8933 9.00046 11.8587 8.99996 11.824 8.99996C9.37553 8.99996 7.39002 11.015 7.39002 13.5C7.39002 13.5374 7.39051 13.5748 7.39141 13.612C7.39172 13.6245 7.39231 13.6369 7.39269 13.6493C7.39349 13.6741 7.39428 13.6989 7.39546 13.7236C7.39615 13.7382 7.39716 13.7528 7.39799 13.7674C7.39927 13.7898 7.40055 13.8121 7.40218 13.8344C7.40329 13.8499 7.40468 13.8653 7.40596 13.8808C7.40772 13.902 7.40949 13.9233 7.41154 13.9445C7.41306 13.9604 7.41479 13.9762 7.41649 13.992C7.41871 14.0127 7.42096 14.0333 7.42345 14.0539C7.42539 14.07 7.42747 14.0859 7.42958 14.1019C7.43225 14.1221 7.43502 14.1423 7.43793 14.1624C7.44029 14.1786 7.44271 14.1946 7.44521 14.2106C7.44832 14.2307 7.45161 14.2506 7.45498 14.2705C7.45768 14.2864 7.46041 14.3023 7.46329 14.3181C7.46693 14.3381 7.4707 14.3581 7.47458 14.378C7.47763 14.3935 7.48064 14.4091 7.48387 14.4246C7.48799 14.4447 7.49235 14.4647 7.49675 14.4847C7.50011 14.4999 7.5034 14.5151 7.5069 14.5303C7.51158 14.5506 7.51657 14.5709 7.52152 14.5911C7.52512 14.6057 7.52859 14.6204 7.53233 14.6349C7.53777 14.6561 7.54352 14.6773 7.54927 14.6984C7.55287 14.7117 7.55637 14.7251 7.56011 14.7384C7.56683 14.7623 7.57393 14.786 7.58103 14.8098C7.58415 14.8202 7.58706 14.8306 7.59025 14.8409C7.60071 14.8749 7.61152 14.9087 7.6227 14.9424C7.62426 14.9471 7.626 14.9517 7.62756 14.9565C7.63729 14.9854 7.64723 15.0141 7.65752 15.0428C7.66171 15.0544 7.66615 15.066 7.67044 15.0776C7.67841 15.0991 7.68634 15.1207 7.69462 15.1421C7.69975 15.1553 7.70508 15.1684 7.71031 15.1816C7.71811 15.2012 7.72587 15.2208 7.73394 15.2403C7.73965 15.2541 7.74558 15.2678 7.7514 15.2815C7.75936 15.3002 7.76733 15.3189 7.77551 15.3375C7.78167 15.3514 7.78798 15.3653 7.79428 15.3792C7.80249 15.3973 7.81077 15.4154 7.81919 15.4334C7.82577 15.4474 7.83249 15.4614 7.83921 15.4753C7.84773 15.493 7.85636 15.5107 7.86512 15.5282C7.87205 15.5421 7.87905 15.556 7.88611 15.5698C7.89505 15.5872 7.90409 15.6046 7.91324 15.6219C7.92044 15.6356 7.92772 15.6492 7.93506 15.6628C7.94445 15.6801 7.95398 15.6973 7.96354 15.7145C7.97098 15.7278 7.97843 15.7412 7.98602 15.7544C7.99589 15.7717 8.00594 15.7888 8.01602 15.8059C8.02364 15.8189 8.03123 15.8318 8.03895 15.8447C8.04951 15.8622 8.06032 15.8796 8.0711 15.897C8.07865 15.9091 8.08613 15.9213 8.09379 15.9334C8.10549 15.9518 8.11744 15.9701 8.1294 15.9883C8.13646 15.9991 8.14343 16.01 8.1506 16.0207C8.1648 16.042 8.17928 16.063 8.19383 16.084C8.19902 16.0915 8.20412 16.0992 8.20935 16.1067C8.22927 16.1351 8.2495 16.1632 8.27007 16.1911C8.27444 16.1971 8.27897 16.2029 8.28337 16.2088C8.29962 16.2307 8.31597 16.2525 8.3326 16.274C8.34029 16.284 8.34822 16.2938 8.35598 16.3037C8.36956 16.321 8.38314 16.3383 8.397 16.3554C8.40586 16.3663 8.41487 16.377 8.42384 16.3879C8.43694 16.4038 8.45003 16.4196 8.46333 16.4353C8.47283 16.4465 8.48249 16.4575 8.49209 16.4686C8.50116 16.4791 8.51006 16.4897 8.51921 16.5001H1.61398V16.5ZM11.8241 16.5C10.1918 16.5 8.86808 15.1565 8.86808 13.5C8.86808 11.8435 10.1918 10.5 11.8241 10.5C11.869 10.5 11.9137 10.5015 11.9582 10.5035C11.981 10.5045 12.0037 10.5062 12.0264 10.5078C12.0443 10.509 12.0622 10.5103 12.08 10.5119C12.6272 10.5618 13.1455 10.7706 13.5956 11.1157L13.82 11.2877C14.4099 11.8362 14.7801 12.6243 14.7801 13.5C14.7801 15.1565 13.4563 16.5 11.8241 16.5Z" fill="currentColor"/>
<path d="M12.7795 12.2197L11.824 13.1894L11.6076 12.9697C11.319 12.6768 10.8511 12.6768 10.5625 12.9697C10.2739 13.2626 10.2739 13.7375 10.5625 14.0304L11.3015 14.7804C11.5901 15.0732 12.058 15.0732 12.3466 14.7804L13.8246 13.2803C14.1132 12.9875 14.1132 12.5126 13.8246 12.2197C13.536 11.9268 13.0681 11.9268 12.7795 12.2197Z" fill="currentColor"/>
<path d="M3.69503 7.49999H5.17305C5.58119 7.49999 5.91204 7.16421 5.91204 6.75C5.91204 6.33579 5.58119 6.00001 5.17305 6.00001H3.69503C3.28689 6.00001 2.95604 6.33579 2.95604 6.75C2.95604 7.16421 3.28689 7.49999 3.69503 7.49999Z" fill="currentColor"/>
<path d="M8.12905 7.49999H11.0851C11.4932 7.49999 11.824 7.16421 11.824 6.75C11.824 6.33579 11.4932 6.00001 11.0851 6.00001H8.12905C7.72091 6.00001 7.39006 6.33579 7.39006 6.75C7.39006 7.16421 7.72091 7.49999 8.12905 7.49999Z" fill="currentColor"/>
<path d="M5.91204 12H2.95604C2.5479 12 2.21705 12.3358 2.21705 12.75C2.21705 13.1642 2.5479 13.5 2.95604 13.5H5.91204C6.32018 13.5 6.65103 13.1642 6.65103 12.75C6.65103 12.3358 6.32018 12 5.91204 12Z" fill="currentColor"/>
<path d="M3.69503 10.5H7.39006C7.7982 10.5 8.12905 10.1642 8.12905 9.75002C8.12905 9.33581 7.7982 9.00004 7.39006 9.00004H3.69503C3.28689 9.00004 2.95604 9.33581 2.95604 9.75002C2.95604 10.1642 3.28689 10.5 3.69503 10.5Z" fill="currentColor"/>
</svg>
