<svg width="18" height="18" viewBox="0 0 18 18" fill="none" xmlns="http://www.w3.org/2000/svg">
<path d="M17.666 1.62594L15.4572 0.153387C15.3587 0.0772033 15.2387 0.0245743 15.1019 0.00696095C15.0994 0.00660939 15.0969 0.00643361 15.0945 0.0061172C15.0781 0.00414845 15.0615 0.00263672 15.0446 0.0016875C15.0359 0.00116016 15.0273 0.000914064 15.0186 0.000703126C15.0123 0.000562501 15.0063 0 15 0H3.00012C2.99449 0 2.98908 0.000527345 2.98349 0.000632814C2.97361 0.000843752 2.96377 0.00116016 2.95389 0.00175782C2.9386 0.00263672 2.92358 0.00404298 2.90871 0.00576564C2.90474 0.00625782 2.9008 0.00657423 2.89687 0.00713673C2.76117 0.0248907 2.64216 0.0770275 2.54429 0.152403L0.334044 1.62587C-0.0105878 1.85566 -0.103715 2.3213 0.126028 2.66594L4.06938 8.58102C3.39548 9.55109 3.00012 10.7293 3.00012 12C3.00012 15.3137 5.68637 18 9.00005 18C12.3137 18 15 15.3137 15 12C15 10.7293 14.6046 9.55109 13.9307 8.58099L17.874 2.66601C18.1037 2.32137 18.0106 1.85573 17.666 1.62594ZM9.00002 5.99999C8.86628 5.99999 8.73368 6.00484 8.60212 6.01345L6.62162 3.74998H11.3784L9.39791 6.01345C9.26636 6.00484 9.13378 5.99999 9.00002 5.99999ZM13.1893 1.49998L12.4393 2.24997H5.56076L4.81078 1.49998H13.1893ZM2.86874 1.73883L6.92111 6.37015C6.25238 6.61719 5.6399 6.98008 5.10764 7.4343L1.79013 2.45792L2.86874 1.73883ZM9.00002 16.5C6.51475 16.5 4.50008 14.4853 4.50008 12C4.50008 10.9129 4.88556 9.91584 5.52726 9.13804C5.54005 9.12496 5.55261 9.11146 5.56466 9.09722C6.25196 8.28448 7.20774 7.73854 8.27092 7.56515C8.29961 7.56047 8.32787 7.55404 8.35568 7.54613C8.56616 7.51596 8.78121 7.5 9.00002 7.5C9.21854 7.5 9.43335 7.51589 9.64354 7.54602C9.67156 7.55404 9.70011 7.56051 9.72904 7.56525C10.7922 7.73864 11.748 8.28459 12.4353 9.09733C12.4476 9.11181 12.4603 9.12549 12.4733 9.13878C13.1147 9.91647 13.5 10.9133 13.5 12C13.5 14.4853 11.4853 16.5 9.00002 16.5ZM12.8924 7.43426C12.3602 6.98004 11.7477 6.61716 11.079 6.37015L15.1312 1.7389L16.2099 2.45802L12.8924 7.43426Z" fill="currentColor"/>
</svg>
