<svg width="20" height="20" viewBox="0 0 20 20" fill="none" xmlns="http://www.w3.org/2000/svg">
<path d="M19 0H5C4.73478 0 4.48043 0.105357 4.29289 0.292893C4.10536 0.48043 4 0.734783 4 1V4H1C0.734783 4 0.48043 4.10536 0.292893 4.29289C0.105357 4.48043 0 4.73478 0 5V19C0 19.2652 0.105357 19.5196 0.292893 19.7071C0.48043 19.8946 0.734783 20 1 20H15C15.2652 20 15.5196 19.8946 15.7071 19.7071C15.8946 19.5196 16 19.2652 16 19V16H19C19.2652 16 19.5196 15.8946 19.7071 15.7071C19.8946 15.5196 20 15.2652 20 15V1C20 0.734783 19.8946 0.48043 19.7071 0.292893C19.5196 0.105357 19.2652 0 19 0ZM14 18H2V6H4V15C4 15.2652 4.10536 15.5196 4.29289 15.7071C4.48043 15.8946 4.73478 16 5 16H14V18ZM18 14H6V2H18V14ZM9 5C9 4.73478 9.10536 4.48043 9.29289 4.29289C9.48043 4.10536 9.73478 4 10 4H15C15.2652 4 15.5196 4.10536 15.7071 4.29289C15.8946 4.48043 16 4.73478 16 5V10C16 10.2652 15.8946 10.5196 15.7071 10.7071C15.5196 10.8946 15.2652 11 15 11C14.7348 11 14.4804 10.8946 14.2929 10.7071C14.1054 10.5196 14 10.2652 14 10V6H10C9.73478 6 9.48043 5.89464 9.29289 5.70711C9.10536 5.51957 9 5.26522 9 5Z" fill="currentColor"/>
</svg>
