<svg width="24" height="24" viewBox="0 0 24 24" fill="none" xmlns="http://www.w3.org/2000/svg">
<path d="M12 0C5.38125 0 0 5.38125 0 12C0 18.6187 5.38125 24 12 24C18.6187 24 24 18.6187 24 12C24 5.38125 18.6187 0 12 0ZM11.9813 17.9531C10.9734 17.9531 10.1437 17.1234 10.1437 16.1156H13.8187C13.8187 17.1234 12.9891 17.9531 11.9813 17.9531ZM6.49219 15.4641L7.62656 13.2234V10.4156C7.62656 7.99687 9.5625 6.04688 11.9813 6.04688C14.4 6.04688 16.35 7.99687 16.35 10.4156V13.2234L17.5125 15.4641H6.49219Z" fill="currentColor"/>
</svg>
