<svg width="24" height="24" viewBox="0 0 24 24" fill="none" xmlns="http://www.w3.org/2000/svg">
<path d="M12 0C5.38293 0 0 5.38293 0 12C0 18.6171 5.38293 24 12 24C18.6171 24 24 18.6171 24 12C24 5.38293 18.6171 0 12 0ZM12 5.00006C12.5521 5.00006 12.9999 5.44794 12.9999 6C12.9999 6.55206 12.5521 6.99994 12 6.99994C11.4479 6.99994 11.0001 6.55206 11.0001 6C11.0001 5.44794 11.4479 5.00006 12 5.00006ZM14.25 18.9999H9.75C9.19702 18.9999 8.75006 18.5521 8.75006 18C8.75006 17.4479 9.19702 17.0001 9.75 17.0001H11.0001V11.0001H10.2501C9.69708 11.0001 9.24994 10.552 9.24994 9.99994C9.24994 9.44806 9.69708 9 10.2501 9H12C12.553 9 12.9999 9.44806 12.9999 9.99994V17.0001H14.25C14.803 17.0001 15.2499 17.4479 15.2499 18C15.2499 18.5521 14.803 18.9999 14.25 18.9999Z" fill="currentColor"/>
</svg>
