<svg width="20" height="20" viewBox="0 0 20 20" fill="none" xmlns="http://www.w3.org/2000/svg">
<path d="M10 0C4.477 0 0 4.47718 0 10C0 15.5228 4.477 20 10 20C15.5229 20 20 15.5228 20 10C20 4.47718 15.5229 0 10 0ZM9.97841 16.5654C9.23876 16.5654 8.63706 15.9636 8.63706 15.2239C8.63706 14.4844 9.23876 13.8826 9.97841 13.8826C10.7181 13.8826 11.3199 14.4843 11.3199 15.2239C11.3199 15.9636 10.7181 16.5654 9.97841 16.5654ZM12.0798 9.97994C11.5001 10.5224 11.1171 10.8806 11.1171 11.7483V12.3901C11.1171 12.5525 10.9854 12.6842 10.8229 12.6842H9.22753C9.06506 12.6842 8.93341 12.5525 8.93341 12.3901V11.7483C8.93341 9.96635 9.85953 9.09676 10.5357 8.46182C11.1113 7.92188 11.4915 7.56524 11.4915 6.71018C11.4915 6.44012 11.4915 5.61829 10.0253 5.61829C8.65059 5.61829 8.59553 6.37612 8.57206 6.69971L8.52424 7.35771C8.51841 7.43688 8.48094 7.51041 8.42006 7.56147C8.35941 7.61265 8.28053 7.63688 8.20153 7.629L6.61029 7.46976C6.45147 7.45388 6.33435 7.31418 6.34629 7.155L6.39329 6.53071C6.53506 4.64988 7.96676 3.43459 10.0407 3.43459C11.1253 3.43459 12.0379 3.73906 12.6798 4.31506C13.3308 4.89924 13.675 5.73282 13.675 6.72565C13.6751 8.48618 12.7531 9.34953 12.0798 9.97994Z" fill="currentColor"/>
</svg>
