<svg width="24" height="24" viewBox="0 0 24 24" fill="none" xmlns="http://www.w3.org/2000/svg">
<path d="M12 0C5.38293 0 0 5.38293 0 12C0 18.6171 5.38293 24 12 24C18.6171 24 24 18.6171 24 12C24 5.38293 18.6171 0 12 0ZM12 18.9999C11.4479 18.9999 11.0001 18.5521 11.0001 18C11.0001 17.4479 11.4479 17.0001 12 17.0001C12.5521 17.0001 12.9999 17.4479 12.9999 18C12.9999 18.5521 12.5521 18.9999 12 18.9999ZM12.9999 14.0001C12.9999 14.5519 12.5521 15 12 15C11.4479 15 11.0001 14.5519 11.0001 14.0001V6C11.0001 5.44794 11.4479 5.00006 12 5.00006C12.5521 5.00006 12.9999 5.44794 12.9999 6V14.0001Z" fill="currentColor"/>
</svg>
