<svg xmlns="http://www.w3.org/2000/svg" width="12" height="11.999" viewBox="0 0 12 11.999"><defs><style>.a{fill:currentColor;}</style></defs><g transform="translate(0 -0.028)"><path class="a" d="M11.223.8A2.647,2.647,0,0,0,7.477.8L.61,7.67a.344.344,0,0,0-.1.2L0,11.635a.342.342,0,0,0,.1.289.349.349,0,0,0,.243.1.278.278,0,0,0,.046,0l2.27-.307a.346.346,0,0,0-.092-.685l-1.82.245L1.1,8.649,3.87,11.415a.349.349,0,0,0,.243.1.339.339,0,0,0,.243-.1L11.223,4.55a2.645,2.645,0,0,0,0-3.746ZM7.61,1.648,8.763,2.8,2.5,9.068,1.343,7.915Zm-3.5,9.036L2.987,9.557,9.254,3.29l1.128,1.128Zm6.747-6.76L8.1,1.165a1.96,1.96,0,0,1,2.759,2.759Z" transform="translate(0 0)"/></g></svg>