<svg width="40" height="40" viewBox="0 0 40 40" fill="none" xmlns="http://www.w3.org/2000/svg">
<g clip-path="url(#clip0_17498_5751)">
<path d="M22.5397 17.6984H17.4603C16.9782 17.6984 16.5873 17.3076 16.5873 16.8254C16.5873 16.3433 16.9782 15.9524 17.4603 15.9524H22.5397C23.0218 15.9524 23.4127 16.3433 23.4127 16.8254C23.4127 17.3076 23.0218 17.6984 22.5397 17.6984Z" fill="currentColor"/>
<path d="M21.2698 21.508H18.7302C18.248 21.508 17.8571 21.1171 17.8571 20.635C17.8571 20.1528 18.248 19.762 18.7302 19.762H21.2698C21.752 19.762 22.1429 20.1528 22.1429 20.635C22.1429 21.1171 21.752 21.508 21.2698 21.508Z" fill="currentColor"/>
<path d="M20 27.8572C14.9674 27.8572 10.873 23.7629 10.873 18.7303C10.873 13.6976 14.9674 9.60327 20 9.60327C25.0326 9.60327 29.127 13.6976 29.127 18.7303C29.127 23.7629 25.0326 27.8572 20 27.8572ZM20 11.3493C15.9302 11.3493 12.619 14.6604 12.619 18.7303C12.619 22.8001 15.9302 26.1112 20 26.1112C24.0698 26.1112 27.381 22.8001 27.381 18.7303C27.381 14.6604 24.0698 11.3493 20 11.3493Z" fill="currentColor"/>
<path d="M20 1.34912C15.3574 1.34912 10.9927 3.15706 7.70985 6.43992C4.63374 9.51603 2.85501 13.5425 2.64294 17.8571H4.39152C4.84628 9.64071 11.6721 3.09515 20 3.09515C23.8838 3.09515 27.5502 4.50333 30.4199 7.07547L31.656 5.83944C28.4552 2.93857 24.3503 1.34912 20 1.34912Z" fill="currentColor"/>
<path d="M20.873 34.3398V36.0875C24.8975 35.8895 28.6703 34.3266 31.656 31.6208L30.42 30.3848C27.7663 32.7633 24.4312 34.1452 20.873 34.3398Z" fill="currentColor"/>
<path d="M19.127 27.8152V36.8843C9.75548 36.4431 2.21175 28.9335 1.76683 19.6032H10.915C10.8876 19.3158 10.873 19.0247 10.873 18.7302C10.873 18.4357 10.8876 18.1446 10.915 17.8572H0.873016C0.390873 17.8572 0 18.2481 0 18.7302C0 24.0684 2.08103 29.0774 5.8596 32.8344C9.63198 36.5852 14.6539 38.6508 20 38.6508C20.4821 38.6508 20.873 38.26 20.873 37.7778V27.8152C20.5856 27.8427 20.2944 27.8572 20 27.8572C19.7056 27.8572 19.4144 27.8426 19.127 27.8152Z" fill="#A6AEBF"/>
<path d="M34.1421 4.58793C33.8011 4.24706 33.2485 4.24706 32.9074 4.58793L25.804 11.6914C26.2536 12.0629 26.6672 12.4764 27.0386 12.9261L33.5104 6.45436C36.5757 9.82047 38.254 14.1464 38.254 18.7301C38.254 23.3137 36.5757 27.6397 33.5104 31.0059L27.0386 24.5341C26.6672 24.9838 26.2536 25.3974 25.804 25.7688L32.9074 32.8723C33.0779 33.0427 33.3013 33.128 33.5247 33.128C33.7482 33.128 33.9716 33.0428 34.1421 32.8723C37.9196 29.0948 40 24.0723 40 18.7301C40 13.3879 37.9196 8.36539 34.1421 4.58793Z" fill="#A6AEBF"/>
</g>
<defs>
<clipPath id="clip0_17498_5751">
<rect width="40" height="40" fill="white"/>
</clipPath>
</defs>
</svg>
