<svg xmlns="http://www.w3.org/2000/svg" width="20" height="18.274" viewBox="0 0 20 18.274">
  <g id="_748102" data-name="748102" transform="translate(0 -22.098)">
    <g id="Group_414" data-name="Group 414" transform="translate(4.293 22.098)">
      <g id="Group_413" data-name="Group 413" transform="translate(0 0)">
        <path id="Path_951" data-name="Path 951" d="M124.516,23.212A3.5,3.5,0,0,0,122,22.1h-.043a3.576,3.576,0,0,0-2.433,1.054l-.006.006-8.934,9.083a2.148,2.148,0,0,0,0,3.118,2.191,2.191,0,0,0,1.557.679h0a2.2,2.2,0,0,0,1.569-.682l6.175-6.308a.781.781,0,0,0-1.116-1.093L112.6,34.261a.656.656,0,0,1-.456.215.631.631,0,0,1-.446-.216.6.6,0,0,1,0-.923l8.922-9.071a1.86,1.86,0,0,1,2.785.044,1.958,1.958,0,0,1,.014,2.9.781.781,0,1,0,1.11,1.1,3.506,3.506,0,0,0-.014-5.1Z" transform="translate(-109.916 -22.098)" fill="currentColor"/>
      </g>
    </g>
    <g id="Group_416" data-name="Group 416" transform="translate(0 23.738)">
      <g id="Group_415" data-name="Group 415" transform="translate(0 0)">
        <path id="Path_952" data-name="Path 952" d="M16.441,70.084a.781.781,0,0,0-1.1.018L7.628,78.063a3.509,3.509,0,0,1-2.487,1.093h0a3.472,3.472,0,0,1-2.484-1.112,3.33,3.33,0,0,1,0-4.931l7.7-7.7a.781.781,0,1,0-1.1-1.1l-7.7,7.7,0,0A5.136,5.136,0,0,0,0,75.477a4.977,4.977,0,0,0,1.545,3.666,5.065,5.065,0,0,0,3.595,1.576h0a5.059,5.059,0,0,0,3.6-1.56l7.717-7.97A.781.781,0,0,0,16.441,70.084Z" transform="translate(0 -64.085)" fill="currentColor"/>
      </g>
    </g>
  </g>
</svg>
