<svg width="18" height="18" viewBox="0 0 18 18" fill="none" xmlns="http://www.w3.org/2000/svg">
<g clip-path="url(#clip0)">
<path d="M17.7603 6.78531L16.8876 5.91259L12.0876 1.1126L11.2149 0.23988C10.8954 -0.0796549 10.3774 -0.0796549 10.0578 0.23988C9.73831 0.559415 9.73831 1.07741 10.0578 1.39694L10.2698 1.6089L4.16298 6.27874L3.79683 5.91252C3.47737 5.59298 2.9593 5.59298 2.63977 5.91252C2.32023 6.23205 2.32023 6.75004 2.63977 7.06958L3.51199 7.94181C3.51217 7.94198 3.51228 7.94212 3.51242 7.9423L6.20658 10.6365L0.239651 16.6035C-0.0798838 16.923 -0.0798838 17.441 0.239651 17.7605C0.399401 17.9202 0.608827 18.0001 0.818218 18.0001C1.02761 18.0001 1.23703 17.9202 1.39678 17.7605L7.36364 11.7936L10.9306 15.3605C11.0903 15.5203 11.2997 15.6002 11.5091 15.6002C11.7184 15.6002 11.9278 15.5203 12.0876 15.3605C12.4072 15.041 12.4072 14.523 12.0876 14.2035L11.7215 13.8372L16.3914 7.73034L16.6033 7.9423C16.7631 8.10205 16.9725 8.18196 17.1819 8.18196C17.3913 8.18196 17.6007 8.10205 17.7604 7.9423C18.0799 7.62283 18.0799 7.10484 17.7603 6.78531ZM10.5541 12.6699L6.33986 8.45565L5.33028 7.44603L11.4371 2.77612L15.2241 6.56308L10.5541 12.6699Z" fill="currentColor"/>
</g>
<defs>
<clipPath id="clip0">
<rect width="18" height="18" fill="currentColor"/>
</clipPath>
</defs>
</svg>
