<svg xmlns="http://www.w3.org/2000/svg" width="12" height="12" viewBox="0 0 12 12"><defs><style>.a{fill:currentColor;}</style></defs><g transform="translate(-0.001)"><g transform="translate(0.663)"><path class="a" d="M39.149,1.655a.469.469,0,0,0-.509.424l-.062.681a5.917,5.917,0,0,0-10.289.493.469.469,0,0,0,.835.426,4.983,4.983,0,0,1,8.67-.413l-.668-.477a.469.469,0,1,0-.545.763L38.607,5a.469.469,0,0,0,.739-.339l.228-2.5A.469.469,0,0,0,39.149,1.655Z" transform="translate(-28.237)"/></g><g transform="translate(0.001 6.912)"><g transform="translate(0)"><path class="a" d="M11.084,296.116a.469.469,0,0,0-.631.2,4.983,4.983,0,0,1-8.67.413l.668.477A.469.469,0,0,0,3,296.448L.97,295a.469.469,0,0,0-.739.339L0,297.836a.469.469,0,1,0,.934.085L1,297.24a5.917,5.917,0,0,0,10.289-.493A.469.469,0,0,0,11.084,296.116Z" transform="translate(-0.001 -294.913)"/></g></g></g></svg>