<svg width="22" height="22" viewBox="0 0 22 22" fill="none" xmlns="http://www.w3.org/2000/svg">
<g opacity="0.5">
<path d="M12.1427 10.5456C12.3961 10.416 12.6785 10.3475 12.9714 10.3475C13.4568 10.3475 13.9132 10.5359 14.2573 10.8782L14.9979 10.1376C16.8306 10.7801 18.9503 10.3688 20.4155 8.90371C21.6483 7.67092 22.1344 5.97477 21.8749 4.37596C21.8463 4.19989 21.7217 4.05467 21.552 3.99988C21.3823 3.94502 21.196 3.9896 21.0699 4.11576L19.9703 5.21541C19.0748 6.11091 17.6228 6.11091 16.7273 5.21541C15.8317 4.3199 15.8317 2.86789 16.7273 1.97238L17.8269 0.872733C17.9531 0.746573 17.998 0.560296 17.9431 0.390531C17.8882 0.220691 17.7428 0.0963313 17.5666 0.0677369C15.9679 -0.191789 14.2717 0.294391 13.0389 1.52718C11.552 3.01409 11.1519 5.17495 11.8357 7.02609L10.2295 8.63233L12.1427 10.5456Z" fill="currentColor"/>
<path d="M9.21674 13.456L7.31158 11.5508L0.649678 18.2126C-0.216559 19.0788 -0.216559 20.4833 0.649678 21.3495C1.51592 22.2157 2.92034 22.2157 3.78658 21.3495L9.52956 15.6066C8.95031 15.0243 8.84592 14.1451 9.21674 13.456Z" fill="currentColor"/>
<path d="M13.4658 11.6783C13.3296 11.542 13.151 11.4739 12.9724 11.4739C12.7939 11.4739 12.6153 11.542 12.479 11.6783L12.0813 12.076L4.99714 4.99175L5.32826 4.66063C5.62997 4.359 5.59252 3.85863 5.24863 3.60541L2.35827 1.47674C2.08051 1.27223 1.69505 1.30127 1.45113 1.54519L0.2239 2.7725C-0.020016 3.01641 -0.0490607 3.40195 0.155453 3.67964L2.28405 6.57C2.53727 6.91381 3.03733 6.95163 3.33926 6.64963L3.67039 6.31843L10.7546 13.4026L10.3289 13.8283C10.0564 14.1008 10.0564 14.5426 10.3289 14.8151L16.8643 21.3505C17.7305 22.2167 19.1349 22.2167 20.0012 21.3505C20.8674 20.4842 20.8674 19.0798 20.0012 18.2136L13.4658 11.6783Z" fill="currentColor"/>
</g>
</svg>
