<svg width="16" height="16" viewBox="0 0 16 16" fill="none" xmlns="http://www.w3.org/2000/svg">
<g opacity="0.75" clip-path="url(#clip0_40_636)">
<path d="M15.3334 7.33333C15.1566 7.33333 14.987 7.40357 14.862 7.5286C14.737 7.65362 14.6667 7.82319 14.6667 8C14.6721 9.55018 14.139 11.0541 13.1584 12.2548C12.1778 13.4554 10.8107 14.2782 9.29065 14.5825C7.77063 14.8869 6.19209 14.6538 4.82485 13.9232C3.45761 13.1927 2.38655 12.0099 1.79475 10.5771C1.20294 9.14433 1.12713 7.55049 1.58027 6.06801C2.03341 4.58552 2.98737 3.30644 4.27909 2.44938C5.57081 1.59232 7.12011 1.2105 8.66216 1.36918C10.2042 1.52786 11.6433 2.21718 12.7334 3.31933C12.7115 3.32531 12.6892 3.32999 12.6667 3.33333H10.6667C10.4899 3.33333 10.3203 3.40357 10.1953 3.5286C10.0703 3.65362 10.0001 3.82319 10.0001 4C10.0001 4.17681 10.0703 4.34638 10.1953 4.47141C10.3203 4.59643 10.4899 4.66667 10.6667 4.66667H12.6667C13.1972 4.66667 13.7059 4.45595 14.0809 4.08088C14.456 3.70581 14.6667 3.1971 14.6667 2.66667V0.666667C14.6667 0.489856 14.5965 0.320286 14.4715 0.195262C14.3464 0.0702379 14.1769 0 14.0001 0C13.8232 0 13.6537 0.0702379 13.5287 0.195262C13.4036 0.320286 13.3334 0.489856 13.3334 0.666667V2.04333C11.9684 0.82302 10.226 0.108111 8.39729 0.0180684C6.56858 -0.0719742 4.76436 0.468305 3.28611 1.54862C1.80787 2.62894 0.745149 4.18386 0.275543 5.95354C-0.194063 7.72322 -0.0421112 9.60046 0.706008 11.2716C1.45413 12.9427 2.75309 14.3064 4.38585 15.1349C6.0186 15.9634 7.88623 16.2065 9.67666 15.8235C11.4671 15.4405 13.0718 14.4547 14.2228 13.0307C15.3737 11.6067 16.0011 9.83093 16.0001 8C16.0001 7.82319 15.9298 7.65362 15.8048 7.5286C15.6798 7.40357 15.5102 7.33333 15.3334 7.33333Z" fill="currentColor"/>
</g>
<defs>
<clipPath id="clip0_40_636">
<rect width="16" height="16" fill="white"/>
</clipPath>
</defs>
</svg>
