<svg width="16" height="16" viewBox="0 0 16 16" fill="none" xmlns="http://www.w3.org/2000/svg">
<g opacity="0.75" clip-path="url(#clip0_40_639)">
<path d="M0.666608 7.33333C0.843419 7.33333 1.01299 7.40357 1.13801 7.5286C1.26304 7.65362 1.33327 7.82319 1.33327 8C1.32786 9.55018 1.861 11.0541 2.84159 12.2548C3.82218 13.4554 5.18932 14.2782 6.70935 14.5825C8.22937 14.8869 9.80791 14.6538 11.1752 13.9232C12.5424 13.1927 13.6134 12.0099 14.2053 10.5771C14.7971 9.14433 14.8729 7.55049 14.4197 6.06801C13.9666 4.58552 13.0126 3.30644 11.7209 2.44938C10.4292 1.59232 8.87989 1.2105 7.33784 1.36918C5.7958 1.52786 4.35673 2.21718 3.26661 3.31933C3.28853 3.32531 3.31079 3.32999 3.33327 3.33333H5.33327C5.51008 3.33333 5.67965 3.40357 5.80468 3.5286C5.9297 3.65362 5.99994 3.82319 5.99994 4C5.99994 4.17681 5.9297 4.34638 5.80468 4.47141C5.67965 4.59643 5.51008 4.66667 5.33327 4.66667H3.33327C2.80284 4.66667 2.29413 4.45595 1.91906 4.08088C1.54399 3.70581 1.33327 3.1971 1.33327 2.66667V0.666667C1.33327 0.489856 1.40351 0.320286 1.52854 0.195262C1.65356 0.0702379 1.82313 0 1.99994 0C2.17675 0 2.34632 0.0702379 2.47135 0.195262C2.59637 0.320286 2.66661 0.489856 2.66661 0.666667V2.04333C4.03157 0.82302 5.77399 0.108111 7.60271 0.0180684C9.43142 -0.0719742 11.2356 0.468305 12.7139 1.54862C14.1921 2.62894 15.2549 4.18386 15.7245 5.95354C16.1941 7.72322 16.0421 9.60046 15.294 11.2716C14.5459 12.9427 13.2469 14.3064 11.6142 15.1349C9.9814 15.9634 8.11377 16.2065 6.32334 15.8235C4.53292 15.4405 2.92817 14.4547 1.77724 13.0307C0.626314 11.6067 -0.0010643 9.83093 -5.91278e-05 8C-5.91278e-05 7.82319 0.070179 7.65362 0.195203 7.5286C0.320227 7.40357 0.489797 7.33333 0.666608 7.33333Z" fill="currentColor"/>
</g>
<defs>
<clipPath id="clip0_40_639">
<rect width="16" height="16" fill="white" transform="matrix(-1 0 0 1 16 0)"/>
</clipPath>
</defs>
</svg>
