<svg width="22" height="22" viewBox="0 0 22 22" fill="none" xmlns="http://www.w3.org/2000/svg">
<path d="M18.7764 3.22357C14.4786 -1.0742 7.52199 -1.07485 3.22362 3.22357C-1.07419 7.52129 -1.07488 14.478 3.22362 18.7764C7.52138 23.0742 14.478 23.0748 18.7764 18.7764C23.0742 14.4787 23.0749 7.52194 18.7764 3.22357ZM11 20.1909C5.93211 20.1909 1.80906 16.0678 1.80906 11C1.80906 5.9321 5.93211 1.8091 11 1.8091C16.0678 1.8091 20.1909 5.93214 20.1909 11C20.1909 16.0679 16.0679 20.1909 11 20.1909Z" fill="currentColor"/>
<path d="M12.3765 5.5084H9.16465C8.66576 5.5084 8.26133 5.91283 8.26133 6.41172V10.0967H7.32937C6.83048 10.0967 6.42605 10.5011 6.42605 11C6.42605 11.4989 6.83048 11.9033 7.32937 11.9033H8.26133V12.8497H7.32937C6.83048 12.8497 6.42605 13.2541 6.42605 13.753C6.42605 14.2519 6.83048 14.6563 7.32937 14.6563H8.26133V15.5883C8.26133 16.0872 8.66576 16.4916 9.16465 16.4916C9.66354 16.4916 10.068 16.0872 10.068 15.5883V14.6563H11.9176C12.4165 14.6563 12.8209 14.2519 12.8209 13.753C12.8209 13.2541 12.4165 12.8497 11.9176 12.8497H10.068V11.9033H12.3765C14.1395 11.9033 15.5739 10.4689 15.5739 8.70589C15.5739 6.94278 14.1396 5.5084 12.3765 5.5084ZM12.3765 10.0967H10.068V7.31499H12.3765C13.1433 7.31499 13.7673 7.93888 13.7673 8.7058C13.7673 9.47272 13.1434 10.0967 12.3765 10.0967Z" fill="currentColor"/>
</svg>
