<svg width="14" height="14" viewBox="0 0 14 14" fill="none" xmlns="http://www.w3.org/2000/svg">
<path d="M13.4874 2.11244L11.8876 0.512559C11.5594 0.184352 11.1143 0 10.6501 0H9.625V3.0625C9.625 3.30411 9.42911 3.5 9.1875 3.5H2.1875C1.94589 3.5 1.75 3.30411 1.75 3.0625V0H0.875C0.391781 0 0 0.391727 0 0.875V13.125C0 13.6082 0.391781 14 0.875 14H13.125C13.6082 14 14 13.6082 14 13.125V3.34988C14 2.88572 13.8156 2.44062 13.4874 2.11244ZM12.25 12.25H1.75V7H12.25V12.25Z" fill="currentColor"/>
<path d="M7.875 0H6.125V2.625H7.875V0Z" fill="currentColor"/>
</svg>
