<svg width="18" height="18" viewBox="0 0 18 18" fill="none" xmlns="http://www.w3.org/2000/svg">
  <path fill-rule="evenodd" clip-rule="evenodd" d="M1.5 7.5C1.5 6.31331 1.85189 5.15327 2.51118 4.16658C3.17047 3.17988 4.10754 2.41085 5.2039 1.95672C6.30026 1.5026 7.50666 1.38378 8.67054 1.61529C9.83443 1.8468 10.9035 2.41824 11.7426 3.25736C12.5818 4.09647 13.1532 5.16557 13.3847 6.32946C13.6162 7.49334 13.4974 8.69974 13.0433 9.7961C12.5892 10.8925 11.8201 11.8295 10.8334 12.4888C9.84673 13.1481 8.68669 13.5 7.5 13.5C5.9087 13.5 4.38258 12.8679 3.25736 11.7426C2.13214 10.6174 1.5 9.0913 1.5 7.5V7.5ZM7.5 0C6.2984 8.87388e-05 5.11442 0.288884 4.04773 0.84207C2.98105 1.39526 2.06289 2.19664 1.37057 3.17874C0.678248 4.16084 0.232031 5.29491 0.0694894 6.48546C-0.0930524 7.67601 0.0328394 8.88819 0.436565 10.0199C0.84029 11.1517 1.51003 12.1698 2.38939 12.9887C3.26876 13.8076 4.332 14.4032 5.4896 14.7254C6.64719 15.0476 7.86526 15.0869 9.04123 14.84C10.2172 14.5932 11.3166 14.0674 12.247 13.307L16.72 17.78C16.8615 17.9166 17.051 17.9921 17.2477 17.9903C17.4443 17.9885 17.6324 17.9095 17.7714 17.7704C17.9104 17.6313 17.9891 17.4431 17.9908 17.2465C17.9924 17.0498 17.9167 16.8604 17.78 16.719L13.307 12.246C14.2052 11.147 14.773 9.81563 14.9446 8.40667C15.1162 6.99772 14.8845 5.569 14.2763 4.28652C13.6682 3.00404 12.7086 1.92046 11.5091 1.16168C10.3096 0.402898 8.91936 6.90051e-05 7.5 0V0Z" fill="currentColor"/>
</svg>
