<svg width="18" height="18" viewBox="0 0 18 18" fill="none" xmlns="http://www.w3.org/2000/svg">
<path d="M17.2501 0H3.75003C3.33581 0 3 0.335779 3 0.749991V6C3 6.41421 3.33578 6.74999 3.74999 6.74999C4.1642 6.74999 4.49998 6.41421 4.49998 6V1.49998H16.5V16.5001H4.50002V12C4.50002 11.5858 4.16424 11.25 3.75003 11.25C3.33581 11.25 3.00004 11.5858 3.00004 12V17.25C3.00004 17.6643 3.33581 18 3.75003 18H17.2501C17.6643 18 18.0001 17.6643 18.0001 17.25V0.749991C18.0001 0.335779 17.6643 0 17.2501 0Z" fill="currentColor"/>
<path d="M6.96968 11.4696C6.6768 11.7625 6.6768 12.2374 6.96968 12.5303C7.26257 12.8232 7.73746 12.8232 8.03035 12.5303L11.0304 9.5303C11.0305 9.53016 11.0306 9.53002 11.0307 9.52991C11.048 9.51255 11.0645 9.49433 11.08 9.47535C11.0872 9.46667 11.0934 9.45753 11.1 9.4486C11.108 9.43794 11.1163 9.4275 11.1237 9.41639C11.1308 9.4057 11.137 9.39463 11.1436 9.38366C11.1496 9.37361 11.1559 9.3638 11.1614 9.35346C11.1674 9.34228 11.1725 9.33082 11.1778 9.3194C11.1829 9.3086 11.1883 9.29799 11.1929 9.28695C11.1975 9.27587 11.2012 9.26455 11.2052 9.2533C11.2095 9.24145 11.214 9.22978 11.2177 9.21769C11.2211 9.20644 11.2236 9.19498 11.2264 9.18362C11.2295 9.17128 11.233 9.15908 11.2355 9.14653C11.2381 9.13335 11.2397 9.12006 11.2416 9.10681C11.2431 9.09587 11.2452 9.08511 11.2463 9.074C11.2512 9.02479 11.2512 8.97518 11.2463 8.92596C11.2452 8.91489 11.2432 8.90413 11.2416 8.89316C11.2397 8.87991 11.2381 8.86658 11.2355 8.85343C11.233 8.84085 11.2295 8.82868 11.2264 8.81634C11.2236 8.80495 11.2211 8.79353 11.2177 8.78228C11.214 8.77018 11.2095 8.75848 11.2052 8.74666C11.2012 8.73541 11.1975 8.72409 11.1929 8.71302C11.1883 8.70194 11.1829 8.69136 11.1778 8.68057C11.1725 8.66918 11.1674 8.65768 11.1614 8.6465C11.1559 8.63617 11.1496 8.62636 11.1436 8.6163C11.137 8.60533 11.1308 8.59426 11.1237 8.58357C11.1163 8.57246 11.108 8.56206 11.1 8.55137C11.0934 8.54244 11.0872 8.5333 11.08 8.52462C11.0645 8.50563 11.048 8.48738 11.0307 8.47005C11.0306 8.46991 11.0305 8.46977 11.0304 8.46967L8.03035 5.46967C7.73746 5.17678 7.26257 5.17678 6.96968 5.46967C6.6768 5.76255 6.6768 6.23745 6.96968 6.53033L8.68936 8.25001H0.749991C0.335779 8.24994 0 8.58572 0 8.99993C0 9.41414 0.335779 9.74992 0.749991 9.74992H8.68936L6.96968 11.4696Z" fill="currentColor"/>
</svg>
