<svg width="20" height="20" viewBox="0 0 20 20" fill="none" xmlns="http://www.w3.org/2000/svg">
<path d="M19.6331 7.11958C19.4045 6.86304 19.0921 6.69618 18.7517 6.64881L13.4359 5.91384L11.3322 0.887744C11.0251 0.152063 10.1796 -0.195334 9.44393 0.111803C9.09319 0.258236 8.81432 0.537041 8.66792 0.887744L6.5643 5.91384L1.24844 6.6481C0.456441 6.75833 -0.0962393 7.48974 0.0140037 8.28167C0.0613823 8.62199 0.228254 8.93436 0.484818 9.16295L4.48994 12.7341L3.66701 18.338C3.57786 18.907 3.83924 19.474 4.32989 19.7758C4.81364 20.0851 5.43588 20.0735 5.90778 19.7465L10 16.9638L14.0923 19.7493C14.7526 20.1974 15.6513 20.0255 16.0995 19.3652C16.3031 19.0652 16.3866 18.6995 16.3331 18.3409L15.5102 12.7348L19.5153 9.16362C20.1123 8.6317 20.1651 7.71653 19.6331 7.11958Z" fill="currentColor"/>
</svg>
