<svg width="19" height="19" viewBox="0 0 19 19" fill="none" xmlns="http://www.w3.org/2000/svg">
<path d="M17.672 6.40901C17.4662 6.17807 17.185 6.02787 16.8786 5.98522V5.98458L12.0938 5.32361L10.2003 0.799142C9.9238 0.136886 9.1628 -0.175838 8.50059 0.100645C8.18489 0.232463 7.93387 0.483441 7.80209 0.799142L5.9086 5.32361L1.12374 5.98458C0.410847 6.08382 -0.0866261 6.74223 0.0126049 7.45512C0.0552509 7.76148 0.205454 8.04267 0.43639 8.24844L4.04144 11.4632L3.30072 16.5078C3.22047 17.02 3.45574 17.5304 3.89738 17.802C4.33281 18.0805 4.89289 18.0701 5.31766 17.7757L9.00115 15.2707L12.6846 17.7782C13.279 18.1816 14.0879 18.0268 14.4913 17.4325C14.6746 17.1624 14.7497 16.8332 14.7016 16.5103L13.9609 11.4638L17.566 8.24904C18.1034 7.77022 18.1508 6.94638 17.672 6.40901ZM12.846 10.7373C12.6848 10.8814 12.6067 11.0969 12.6383 11.3108L13.4099 16.7116L9.36443 13.9611C9.14634 13.8129 8.85984 13.8129 8.64175 13.9611L4.57248 16.6949L5.36396 11.3082C5.3947 11.0952 5.31672 10.8808 5.15627 10.7373L1.29854 7.2602L6.44733 6.54972C6.67276 6.51864 6.86493 6.3707 6.95267 6.16074L9.00883 1.28588C9.01117 1.28874 9.0129 1.29202 9.014 1.29552L11.0489 6.15818C11.1367 6.36813 11.3289 6.51608 11.5543 6.54716L16.7095 7.28913L12.846 10.7373Z" fill="currentColor"/>
</svg>
