<svg width="14" height="14" viewBox="0 0 14 14" fill="none" xmlns="http://www.w3.org/2000/svg">
<path d="M10.8182 0H3.18182C2.33826 0.00101045 1.52954 0.336561 0.933049 0.933049C0.336561 1.52954 0.00101045 2.33826 0 3.18182V8.27273C0.000925606 9.00595 0.254603 9.71643 0.718275 10.2844C1.18195 10.8524 1.82726 11.2432 2.54545 11.3909V13.3636C2.54544 13.4788 2.5767 13.5919 2.6359 13.6907C2.6951 13.7896 2.78002 13.8705 2.8816 13.9248C2.98319 13.9792 3.09762 14.0049 3.21269 13.9993C3.32777 13.9938 3.43916 13.957 3.535 13.8931L7.19091 11.4545H10.8182C11.6617 11.4535 12.4705 11.118 13.067 10.5215C13.6634 9.92501 13.999 9.11629 14 8.27273V3.18182C13.999 2.33826 13.6634 1.52954 13.067 0.933049C12.4705 0.336561 11.6617 0.00101045 10.8182 0ZM9.54545 7.63636H4.45455C4.28577 7.63636 4.12391 7.56932 4.00457 7.44998C3.88523 7.33064 3.81818 7.16877 3.81818 7C3.81818 6.83123 3.88523 6.66936 4.00457 6.55002C4.12391 6.43068 4.28577 6.36364 4.45455 6.36364H9.54545C9.71423 6.36364 9.87609 6.43068 9.99543 6.55002C10.1148 6.66936 10.1818 6.83123 10.1818 7C10.1818 7.16877 10.1148 7.33064 9.99543 7.44998C9.87609 7.56932 9.71423 7.63636 9.54545 7.63636ZM10.8182 5.09091H3.18182C3.01304 5.09091 2.85118 5.02386 2.73184 4.90452C2.6125 4.78518 2.54545 4.62332 2.54545 4.45455C2.54545 4.28577 2.6125 4.12391 2.73184 4.00457C2.85118 3.88523 3.01304 3.81818 3.18182 3.81818H10.8182C10.987 3.81818 11.1488 3.88523 11.2682 4.00457C11.3875 4.12391 11.4545 4.28577 11.4545 4.45455C11.4545 4.62332 11.3875 4.78518 11.2682 4.90452C11.1488 5.02386 10.987 5.09091 10.8182 5.09091Z" fill="currentColor"/>
</svg>
