<svg width="20" height="18" viewBox="0 0 20 18" fill="currentColor" xmlns="http://www.w3.org/2000/svg">
<path d="M10.1711 0.00148915C4.64912 -0.0928522 0.0958315 4.30723 0.00149013 9.82922C-0.0520958 12.9602 1.3434 15.7742 3.56533 17.6456C3.71062 17.5188 3.86647 17.4026 4.03968 17.3082L7.02351 15.6806C7.41483 15.4671 7.65861 15.0569 7.65861 14.6108V13.3882C7.65861 13.3882 6.78275 12.3406 6.44878 10.8851C6.17179 10.7058 5.98613 10.396 5.98613 10.0432V8.70505C5.98613 8.4107 6.11708 8.14768 6.32048 7.96352V6.02915C6.32048 6.02915 5.92311 3.0189 9.99979 3.0189C14.0765 3.0189 13.6791 6.02915 13.6791 6.02915V7.96352C13.8829 8.14768 14.0134 8.4107 14.0134 8.70505V10.0432C14.0134 10.493 13.7116 10.8715 13.3017 10.9979C13.0734 11.7077 12.744 12.3844 12.3085 12.9995C12.1987 13.1546 12.0961 13.2859 12.0062 13.3882V14.6418C12.0062 15.1033 12.267 15.5255 12.6798 15.7316L15.875 17.329C16.0667 17.4248 16.2399 17.546 16.3995 17.6807C18.5543 15.8837 19.9464 13.1968 19.9981 10.1711C20.0932 4.64912 15.6935 0.0958305 10.1711 0.00148915Z" fill="currentColor"/>
</svg>
